<mxfile host="app.diagrams.net" agent="Mozilla/5.0 (X11; Linux x86_64; rv:134.0) Gecko/20100101 Firefox/134.0" version="26.0.7">
  <diagram name="Page-1" id="A_cYhWSM9E1vI_S_Ohn4">
    <mxGraphModel dx="1274" dy="676" grid="1" gridSize="10" guides="1" tooltips="1" connect="1" arrows="1" fold="1" page="1" pageScale="1" pageWidth="1600" pageHeight="1200" math="0" shadow="0">
      <root>
        <mxCell id="0" />
        <mxCell id="1" parent="0" />
        <mxCell id="YRkSIn1wJ7mnRO5CYGxt-1" value="" style="ellipse;whiteSpace=wrap;html=1;aspect=fixed;strokeWidth=2;" vertex="1" parent="1">
          <mxGeometry x="140" y="120" width="80" height="80" as="geometry" />
        </mxCell>
        <mxCell id="YRkSIn1wJ7mnRO5CYGxt-3" value="&lt;div align=&quot;center&quot;&gt;&lt;div&gt;&lt;font style=&quot;font-size: 24px; line-height: 100%;&quot;&gt;H2&lt;/font&gt;&lt;/div&gt;&lt;/div&gt;" style="text;html=1;align=center;verticalAlign=middle;whiteSpace=wrap;rounded=0;" vertex="1" parent="1">
          <mxGeometry x="150" y="136" width="60" height="25" as="geometry" />
        </mxCell>
        <mxCell id="YRkSIn1wJ7mnRO5CYGxt-8" value="" style="ellipse;whiteSpace=wrap;html=1;aspect=fixed;strokeWidth=2;" vertex="1" parent="1">
          <mxGeometry x="260" y="120" width="80" height="80" as="geometry" />
        </mxCell>
        <mxCell id="YRkSIn1wJ7mnRO5CYGxt-9" value="&lt;div align=&quot;center&quot;&gt;&lt;div&gt;&lt;font style=&quot;font-size: 24px; line-height: 100%;&quot;&gt;O2&lt;/font&gt;&lt;/div&gt;&lt;/div&gt;" style="text;html=1;align=center;verticalAlign=middle;whiteSpace=wrap;rounded=0;" vertex="1" parent="1">
          <mxGeometry x="270" y="136" width="60" height="25" as="geometry" />
        </mxCell>
        <mxCell id="YRkSIn1wJ7mnRO5CYGxt-10" value="" style="rounded=0;whiteSpace=wrap;html=1;strokeWidth=2;" vertex="1" parent="1">
          <mxGeometry x="160" y="280" width="160" height="60" as="geometry" />
        </mxCell>
        <mxCell id="YRkSIn1wJ7mnRO5CYGxt-11" value="&lt;font style=&quot;font-size: 24px;&quot;&gt;Reactie&lt;/font&gt;" style="text;html=1;align=center;verticalAlign=middle;whiteSpace=wrap;rounded=0;" vertex="1" parent="1">
          <mxGeometry x="202" y="296" width="78" height="30" as="geometry" />
        </mxCell>
        <mxCell id="YRkSIn1wJ7mnRO5CYGxt-14" value="" style="endArrow=classic;html=1;rounded=0;entryX=0.25;entryY=0;entryDx=0;entryDy=0;strokeWidth=2;exitX=0.5;exitY=1;exitDx=0;exitDy=0;" edge="1" parent="1" source="YRkSIn1wJ7mnRO5CYGxt-1">
          <mxGeometry relative="1" as="geometry">
            <mxPoint x="140" y="230" as="sourcePoint" />
            <mxPoint x="200" y="280" as="targetPoint" />
          </mxGeometry>
        </mxCell>
        <mxCell id="YRkSIn1wJ7mnRO5CYGxt-15" value="&lt;font style=&quot;font-size: 18px;&quot;&gt;2&lt;br&gt;&lt;/font&gt;" style="edgeLabel;resizable=0;html=1;;align=center;verticalAlign=middle;" connectable="0" vertex="1" parent="YRkSIn1wJ7mnRO5CYGxt-14">
          <mxGeometry relative="1" as="geometry" />
        </mxCell>
        <mxCell id="YRkSIn1wJ7mnRO5CYGxt-20" value="" style="endArrow=classic;html=1;rounded=0;exitX=0.5;exitY=1;exitDx=0;exitDy=0;entryX=0.75;entryY=0;entryDx=0;entryDy=0;strokeWidth=2;" edge="1" parent="1" source="YRkSIn1wJ7mnRO5CYGxt-8" target="YRkSIn1wJ7mnRO5CYGxt-10">
          <mxGeometry relative="1" as="geometry">
            <mxPoint x="182" y="210" as="sourcePoint" />
            <mxPoint x="210" y="290" as="targetPoint" />
          </mxGeometry>
        </mxCell>
        <mxCell id="YRkSIn1wJ7mnRO5CYGxt-21" value="&lt;font style=&quot;font-size: 18px;&quot;&gt;1&lt;br&gt;&lt;/font&gt;" style="edgeLabel;resizable=0;html=1;;align=center;verticalAlign=middle;" connectable="0" vertex="1" parent="YRkSIn1wJ7mnRO5CYGxt-20">
          <mxGeometry relative="1" as="geometry" />
        </mxCell>
        <mxCell id="YRkSIn1wJ7mnRO5CYGxt-22" value="" style="ellipse;whiteSpace=wrap;html=1;aspect=fixed;strokeWidth=2;" vertex="1" parent="1">
          <mxGeometry x="201" y="440" width="80" height="80" as="geometry" />
        </mxCell>
        <mxCell id="YRkSIn1wJ7mnRO5CYGxt-23" value="&lt;div align=&quot;center&quot;&gt;&lt;div&gt;&lt;font style=&quot;font-size: 24px; line-height: 100%;&quot;&gt;H2O&lt;/font&gt;&lt;/div&gt;&lt;/div&gt;" style="text;html=1;align=center;verticalAlign=middle;whiteSpace=wrap;rounded=0;" vertex="1" parent="1">
          <mxGeometry x="211" y="456" width="60" height="25" as="geometry" />
        </mxCell>
        <mxCell id="YRkSIn1wJ7mnRO5CYGxt-24" value="" style="endArrow=classic;html=1;rounded=0;entryX=0.5;entryY=0;entryDx=0;entryDy=0;strokeWidth=2;exitX=0.5;exitY=1;exitDx=0;exitDy=0;" edge="1" parent="1" source="YRkSIn1wJ7mnRO5CYGxt-10" target="YRkSIn1wJ7mnRO5CYGxt-22">
          <mxGeometry relative="1" as="geometry">
            <mxPoint x="190" y="210" as="sourcePoint" />
            <mxPoint x="210" y="290" as="targetPoint" />
          </mxGeometry>
        </mxCell>
        <mxCell id="YRkSIn1wJ7mnRO5CYGxt-25" value="&lt;font style=&quot;font-size: 18px;&quot;&gt;2&lt;br&gt;&lt;/font&gt;" style="edgeLabel;resizable=0;html=1;;align=center;verticalAlign=middle;" connectable="0" vertex="1" parent="YRkSIn1wJ7mnRO5CYGxt-24">
          <mxGeometry relative="1" as="geometry" />
        </mxCell>
        <mxCell id="YRkSIn1wJ7mnRO5CYGxt-38" value="" style="ellipse;whiteSpace=wrap;html=1;aspect=fixed;strokeWidth=2;" vertex="1" parent="1">
          <mxGeometry x="460" y="120" width="80" height="80" as="geometry" />
        </mxCell>
        <mxCell id="YRkSIn1wJ7mnRO5CYGxt-39" value="&lt;div align=&quot;center&quot;&gt;&lt;div&gt;&lt;font style=&quot;font-size: 24px; line-height: 100%;&quot;&gt;H2&lt;/font&gt;&lt;/div&gt;&lt;/div&gt;" style="text;html=1;align=center;verticalAlign=middle;whiteSpace=wrap;rounded=0;" vertex="1" parent="1">
          <mxGeometry x="470" y="136" width="60" height="25" as="geometry" />
        </mxCell>
        <mxCell id="YRkSIn1wJ7mnRO5CYGxt-40" value="" style="ellipse;whiteSpace=wrap;html=1;aspect=fixed;strokeWidth=2;" vertex="1" parent="1">
          <mxGeometry x="580" y="120" width="80" height="80" as="geometry" />
        </mxCell>
        <mxCell id="YRkSIn1wJ7mnRO5CYGxt-41" value="&lt;div align=&quot;center&quot;&gt;&lt;div&gt;&lt;font style=&quot;font-size: 24px; line-height: 100%;&quot;&gt;O2&lt;/font&gt;&lt;/div&gt;&lt;/div&gt;" style="text;html=1;align=center;verticalAlign=middle;whiteSpace=wrap;rounded=0;" vertex="1" parent="1">
          <mxGeometry x="590" y="136" width="60" height="25" as="geometry" />
        </mxCell>
        <mxCell id="YRkSIn1wJ7mnRO5CYGxt-42" value="" style="rounded=0;whiteSpace=wrap;html=1;strokeWidth=2;" vertex="1" parent="1">
          <mxGeometry x="480" y="280" width="160" height="60" as="geometry" />
        </mxCell>
        <mxCell id="YRkSIn1wJ7mnRO5CYGxt-43" value="&lt;font style=&quot;font-size: 24px;&quot;&gt;Reactie&lt;/font&gt;" style="text;html=1;align=center;verticalAlign=middle;whiteSpace=wrap;rounded=0;" vertex="1" parent="1">
          <mxGeometry x="522" y="296" width="78" height="30" as="geometry" />
        </mxCell>
        <mxCell id="YRkSIn1wJ7mnRO5CYGxt-44" value="" style="endArrow=classic;html=1;rounded=0;entryX=0.25;entryY=0;entryDx=0;entryDy=0;strokeWidth=2;exitX=0.5;exitY=1;exitDx=0;exitDy=0;" edge="1" parent="1" source="YRkSIn1wJ7mnRO5CYGxt-38">
          <mxGeometry relative="1" as="geometry">
            <mxPoint x="460" y="230" as="sourcePoint" />
            <mxPoint x="520" y="280" as="targetPoint" />
          </mxGeometry>
        </mxCell>
        <mxCell id="YRkSIn1wJ7mnRO5CYGxt-45" value="&lt;font style=&quot;font-size: 18px;&quot;&gt;2&lt;br&gt;&lt;/font&gt;" style="edgeLabel;resizable=0;html=1;;align=center;verticalAlign=middle;" connectable="0" vertex="1" parent="YRkSIn1wJ7mnRO5CYGxt-44">
          <mxGeometry relative="1" as="geometry" />
        </mxCell>
        <mxCell id="YRkSIn1wJ7mnRO5CYGxt-46" value="" style="endArrow=classic;html=1;rounded=0;exitX=0.5;exitY=1;exitDx=0;exitDy=0;entryX=0.75;entryY=0;entryDx=0;entryDy=0;strokeWidth=2;" edge="1" parent="1" source="YRkSIn1wJ7mnRO5CYGxt-40" target="YRkSIn1wJ7mnRO5CYGxt-42">
          <mxGeometry relative="1" as="geometry">
            <mxPoint x="502" y="210" as="sourcePoint" />
            <mxPoint x="530" y="290" as="targetPoint" />
          </mxGeometry>
        </mxCell>
        <mxCell id="YRkSIn1wJ7mnRO5CYGxt-47" value="&lt;font style=&quot;font-size: 18px;&quot;&gt;1&lt;br&gt;&lt;/font&gt;" style="edgeLabel;resizable=0;html=1;;align=center;verticalAlign=middle;" connectable="0" vertex="1" parent="YRkSIn1wJ7mnRO5CYGxt-46">
          <mxGeometry relative="1" as="geometry" />
        </mxCell>
        <mxCell id="YRkSIn1wJ7mnRO5CYGxt-48" value="" style="ellipse;whiteSpace=wrap;html=1;aspect=fixed;strokeWidth=2;" vertex="1" parent="1">
          <mxGeometry x="521" y="440" width="80" height="80" as="geometry" />
        </mxCell>
        <mxCell id="YRkSIn1wJ7mnRO5CYGxt-49" value="&lt;div align=&quot;center&quot;&gt;&lt;div&gt;&lt;font style=&quot;font-size: 24px; line-height: 100%;&quot;&gt;H2O&lt;/font&gt;&lt;/div&gt;&lt;/div&gt;" style="text;html=1;align=center;verticalAlign=middle;whiteSpace=wrap;rounded=0;" vertex="1" parent="1">
          <mxGeometry x="531" y="456" width="60" height="25" as="geometry" />
        </mxCell>
        <mxCell id="YRkSIn1wJ7mnRO5CYGxt-50" value="" style="endArrow=classic;html=1;rounded=0;entryX=0.5;entryY=0;entryDx=0;entryDy=0;strokeWidth=2;exitX=0.5;exitY=1;exitDx=0;exitDy=0;" edge="1" parent="1" source="YRkSIn1wJ7mnRO5CYGxt-42" target="YRkSIn1wJ7mnRO5CYGxt-48">
          <mxGeometry relative="1" as="geometry">
            <mxPoint x="510" y="210" as="sourcePoint" />
            <mxPoint x="530" y="290" as="targetPoint" />
          </mxGeometry>
        </mxCell>
        <mxCell id="YRkSIn1wJ7mnRO5CYGxt-51" value="&lt;font style=&quot;font-size: 18px;&quot;&gt;2&lt;br&gt;&lt;/font&gt;" style="edgeLabel;resizable=0;html=1;;align=center;verticalAlign=middle;" connectable="0" vertex="1" parent="YRkSIn1wJ7mnRO5CYGxt-50">
          <mxGeometry relative="1" as="geometry" />
        </mxCell>
        <mxCell id="YRkSIn1wJ7mnRO5CYGxt-52" value="" style="ellipse;whiteSpace=wrap;html=1;aspect=fixed;labelBackgroundColor=none;fillColor=#000000;" vertex="1" parent="1">
          <mxGeometry x="486" y="170" width="10" height="10" as="geometry" />
        </mxCell>
        <mxCell id="YRkSIn1wJ7mnRO5CYGxt-53" value="" style="ellipse;whiteSpace=wrap;html=1;aspect=fixed;labelBackgroundColor=none;fillColor=#000000;" vertex="1" parent="1">
          <mxGeometry x="504" y="170" width="10" height="10" as="geometry" />
        </mxCell>
        <mxCell id="YRkSIn1wJ7mnRO5CYGxt-54" value="" style="ellipse;whiteSpace=wrap;html=1;aspect=fixed;labelBackgroundColor=none;fillColor=#000000;" vertex="1" parent="1">
          <mxGeometry x="616" y="170" width="10" height="10" as="geometry" />
        </mxCell>
        <mxCell id="YRkSIn1wJ7mnRO5CYGxt-55" value="" style="ellipse;whiteSpace=wrap;html=1;aspect=fixed;strokeWidth=2;" vertex="1" parent="1">
          <mxGeometry x="750" y="120" width="80" height="80" as="geometry" />
        </mxCell>
        <mxCell id="YRkSIn1wJ7mnRO5CYGxt-56" value="&lt;div align=&quot;center&quot;&gt;&lt;div&gt;&lt;font style=&quot;font-size: 24px; line-height: 100%;&quot;&gt;H2&lt;/font&gt;&lt;/div&gt;&lt;/div&gt;" style="text;html=1;align=center;verticalAlign=middle;whiteSpace=wrap;rounded=0;" vertex="1" parent="1">
          <mxGeometry x="760" y="136" width="60" height="25" as="geometry" />
        </mxCell>
        <mxCell id="YRkSIn1wJ7mnRO5CYGxt-57" value="" style="ellipse;whiteSpace=wrap;html=1;aspect=fixed;strokeWidth=2;" vertex="1" parent="1">
          <mxGeometry x="870" y="120" width="80" height="80" as="geometry" />
        </mxCell>
        <mxCell id="YRkSIn1wJ7mnRO5CYGxt-58" value="&lt;div align=&quot;center&quot;&gt;&lt;div&gt;&lt;font style=&quot;font-size: 24px; line-height: 100%;&quot;&gt;O2&lt;/font&gt;&lt;/div&gt;&lt;/div&gt;" style="text;html=1;align=center;verticalAlign=middle;whiteSpace=wrap;rounded=0;" vertex="1" parent="1">
          <mxGeometry x="880" y="136" width="60" height="25" as="geometry" />
        </mxCell>
        <mxCell id="YRkSIn1wJ7mnRO5CYGxt-59" value="" style="rounded=0;whiteSpace=wrap;html=1;strokeWidth=2;" vertex="1" parent="1">
          <mxGeometry x="770" y="280" width="160" height="60" as="geometry" />
        </mxCell>
        <mxCell id="YRkSIn1wJ7mnRO5CYGxt-60" value="&lt;font style=&quot;font-size: 24px;&quot;&gt;Reactie&lt;/font&gt;" style="text;html=1;align=center;verticalAlign=middle;whiteSpace=wrap;rounded=0;" vertex="1" parent="1">
          <mxGeometry x="812" y="296" width="78" height="30" as="geometry" />
        </mxCell>
        <mxCell id="YRkSIn1wJ7mnRO5CYGxt-61" value="" style="endArrow=classic;html=1;rounded=0;entryX=0.25;entryY=0;entryDx=0;entryDy=0;strokeWidth=2;exitX=0.5;exitY=1;exitDx=0;exitDy=0;" edge="1" parent="1" source="YRkSIn1wJ7mnRO5CYGxt-55">
          <mxGeometry relative="1" as="geometry">
            <mxPoint x="750" y="230" as="sourcePoint" />
            <mxPoint x="810" y="280" as="targetPoint" />
          </mxGeometry>
        </mxCell>
        <mxCell id="YRkSIn1wJ7mnRO5CYGxt-62" value="&lt;font style=&quot;font-size: 18px;&quot;&gt;2&lt;br&gt;&lt;/font&gt;" style="edgeLabel;resizable=0;html=1;;align=center;verticalAlign=middle;" connectable="0" vertex="1" parent="YRkSIn1wJ7mnRO5CYGxt-61">
          <mxGeometry relative="1" as="geometry" />
        </mxCell>
        <mxCell id="YRkSIn1wJ7mnRO5CYGxt-63" value="" style="endArrow=classic;html=1;rounded=0;exitX=0.5;exitY=1;exitDx=0;exitDy=0;entryX=0.75;entryY=0;entryDx=0;entryDy=0;strokeWidth=2;" edge="1" parent="1" source="YRkSIn1wJ7mnRO5CYGxt-57" target="YRkSIn1wJ7mnRO5CYGxt-59">
          <mxGeometry relative="1" as="geometry">
            <mxPoint x="792" y="210" as="sourcePoint" />
            <mxPoint x="820" y="290" as="targetPoint" />
          </mxGeometry>
        </mxCell>
        <mxCell id="YRkSIn1wJ7mnRO5CYGxt-64" value="&lt;font style=&quot;font-size: 18px;&quot;&gt;1&lt;br&gt;&lt;/font&gt;" style="edgeLabel;resizable=0;html=1;;align=center;verticalAlign=middle;" connectable="0" vertex="1" parent="YRkSIn1wJ7mnRO5CYGxt-63">
          <mxGeometry relative="1" as="geometry" />
        </mxCell>
        <mxCell id="YRkSIn1wJ7mnRO5CYGxt-65" value="" style="ellipse;whiteSpace=wrap;html=1;aspect=fixed;strokeWidth=2;" vertex="1" parent="1">
          <mxGeometry x="811" y="440" width="80" height="80" as="geometry" />
        </mxCell>
        <mxCell id="YRkSIn1wJ7mnRO5CYGxt-66" value="&lt;div align=&quot;center&quot;&gt;&lt;div&gt;&lt;font style=&quot;font-size: 24px; line-height: 100%;&quot;&gt;H2O&lt;/font&gt;&lt;/div&gt;&lt;/div&gt;" style="text;html=1;align=center;verticalAlign=middle;whiteSpace=wrap;rounded=0;" vertex="1" parent="1">
          <mxGeometry x="821" y="456" width="60" height="25" as="geometry" />
        </mxCell>
        <mxCell id="YRkSIn1wJ7mnRO5CYGxt-67" value="" style="endArrow=classic;html=1;rounded=0;entryX=0.5;entryY=0;entryDx=0;entryDy=0;strokeWidth=2;exitX=0.5;exitY=1;exitDx=0;exitDy=0;" edge="1" parent="1" source="YRkSIn1wJ7mnRO5CYGxt-59" target="YRkSIn1wJ7mnRO5CYGxt-65">
          <mxGeometry relative="1" as="geometry">
            <mxPoint x="800" y="210" as="sourcePoint" />
            <mxPoint x="820" y="290" as="targetPoint" />
          </mxGeometry>
        </mxCell>
        <mxCell id="YRkSIn1wJ7mnRO5CYGxt-68" value="&lt;font style=&quot;font-size: 18px;&quot;&gt;2&lt;br&gt;&lt;/font&gt;" style="edgeLabel;resizable=0;html=1;;align=center;verticalAlign=middle;" connectable="0" vertex="1" parent="YRkSIn1wJ7mnRO5CYGxt-67">
          <mxGeometry relative="1" as="geometry" />
        </mxCell>
        <mxCell id="YRkSIn1wJ7mnRO5CYGxt-69" value="" style="ellipse;whiteSpace=wrap;html=1;aspect=fixed;labelBackgroundColor=none;fillColor=#000000;" vertex="1" parent="1">
          <mxGeometry x="837" y="490" width="10" height="10" as="geometry" />
        </mxCell>
        <mxCell id="YRkSIn1wJ7mnRO5CYGxt-70" value="" style="ellipse;whiteSpace=wrap;html=1;aspect=fixed;labelBackgroundColor=none;fillColor=#000000;" vertex="1" parent="1">
          <mxGeometry x="855" y="490" width="10" height="10" as="geometry" />
        </mxCell>
        <mxCell id="YRkSIn1wJ7mnRO5CYGxt-72" value="" style="ellipse;whiteSpace=wrap;html=1;aspect=fixed;strokeWidth=2;" vertex="1" parent="1">
          <mxGeometry x="1100" y="419" width="80" height="80" as="geometry" />
        </mxCell>
        <mxCell id="YRkSIn1wJ7mnRO5CYGxt-73" value="&lt;div align=&quot;center&quot;&gt;&lt;div&gt;&lt;font style=&quot;font-size: 24px; line-height: 100%;&quot;&gt;P1&lt;/font&gt;&lt;/div&gt;&lt;/div&gt;" style="text;html=1;align=center;verticalAlign=middle;whiteSpace=wrap;rounded=0;" vertex="1" parent="1">
          <mxGeometry x="1110" y="435" width="60" height="25" as="geometry" />
        </mxCell>
        <mxCell id="YRkSIn1wJ7mnRO5CYGxt-74" value="" style="rounded=0;whiteSpace=wrap;html=1;strokeWidth=2;" vertex="1" parent="1">
          <mxGeometry x="1240" y="429" width="160" height="60" as="geometry" />
        </mxCell>
        <mxCell id="YRkSIn1wJ7mnRO5CYGxt-75" value="&lt;font style=&quot;font-size: 24px;&quot;&gt;T1&lt;/font&gt;" style="text;html=1;align=center;verticalAlign=middle;whiteSpace=wrap;rounded=0;" vertex="1" parent="1">
          <mxGeometry x="1282" y="445" width="78" height="30" as="geometry" />
        </mxCell>
        <mxCell id="YRkSIn1wJ7mnRO5CYGxt-76" value="" style="ellipse;whiteSpace=wrap;html=1;aspect=fixed;labelBackgroundColor=none;fillColor=#000000;" vertex="1" parent="1">
          <mxGeometry x="1460" y="435" width="10" height="10" as="geometry" />
        </mxCell>
        <mxCell id="YRkSIn1wJ7mnRO5CYGxt-79" value="" style="endArrow=classic;html=1;rounded=0;strokeWidth=2;exitX=1;exitY=0.5;exitDx=0;exitDy=0;entryX=0.5;entryY=1;entryDx=0;entryDy=0;" edge="1" parent="1" source="YRkSIn1wJ7mnRO5CYGxt-387" target="YRkSIn1wJ7mnRO5CYGxt-395">
          <mxGeometry relative="1" as="geometry">
            <mxPoint x="1801" y="326" as="sourcePoint" />
            <mxPoint x="1710" y="280" as="targetPoint" />
          </mxGeometry>
        </mxCell>
        <mxCell id="YRkSIn1wJ7mnRO5CYGxt-80" value="&lt;font style=&quot;font-size: 18px;&quot;&gt;1&lt;br&gt;&lt;/font&gt;" style="edgeLabel;resizable=0;html=1;;align=center;verticalAlign=middle;" connectable="0" vertex="1" parent="YRkSIn1wJ7mnRO5CYGxt-79">
          <mxGeometry relative="1" as="geometry" />
        </mxCell>
        <mxCell id="YRkSIn1wJ7mnRO5CYGxt-81" value="" style="ellipse;whiteSpace=wrap;html=1;aspect=fixed;strokeWidth=2;" vertex="1" parent="1">
          <mxGeometry x="320" y="680" width="80" height="80" as="geometry" />
        </mxCell>
        <mxCell id="YRkSIn1wJ7mnRO5CYGxt-82" value="&lt;div align=&quot;center&quot;&gt;&lt;div&gt;&lt;font style=&quot;line-height: 100%; font-size: 18px;&quot;&gt;MUTEX&lt;/font&gt;&lt;/div&gt;&lt;/div&gt;" style="text;html=1;align=center;verticalAlign=middle;whiteSpace=wrap;rounded=0;" vertex="1" parent="1">
          <mxGeometry x="330" y="696" width="60" height="25" as="geometry" />
        </mxCell>
        <mxCell id="YRkSIn1wJ7mnRO5CYGxt-83" value="" style="ellipse;whiteSpace=wrap;html=1;aspect=fixed;strokeWidth=2;" vertex="1" parent="1">
          <mxGeometry x="170.29" y="600" width="80" height="80" as="geometry" />
        </mxCell>
        <mxCell id="YRkSIn1wJ7mnRO5CYGxt-84" value="&lt;div align=&quot;center&quot;&gt;&lt;div&gt;&lt;font style=&quot;line-height: 100%; font-size: 18px;&quot;&gt;Res1&lt;/font&gt;&lt;/div&gt;&lt;/div&gt;" style="text;html=1;align=center;verticalAlign=middle;whiteSpace=wrap;rounded=0;" vertex="1" parent="1">
          <mxGeometry x="180.29" y="616" width="60" height="25" as="geometry" />
        </mxCell>
        <mxCell id="YRkSIn1wJ7mnRO5CYGxt-85" value="" style="ellipse;whiteSpace=wrap;html=1;aspect=fixed;strokeWidth=2;" vertex="1" parent="1">
          <mxGeometry x="469.54" y="600" width="80" height="80" as="geometry" />
        </mxCell>
        <mxCell id="YRkSIn1wJ7mnRO5CYGxt-86" value="&lt;div align=&quot;center&quot;&gt;&lt;div&gt;&lt;font style=&quot;line-height: 100%; font-size: 18px;&quot;&gt;Res2&lt;/font&gt;&lt;/div&gt;&lt;/div&gt;" style="text;html=1;align=center;verticalAlign=middle;whiteSpace=wrap;rounded=0;" vertex="1" parent="1">
          <mxGeometry x="479.54" y="616" width="60" height="25" as="geometry" />
        </mxCell>
        <mxCell id="YRkSIn1wJ7mnRO5CYGxt-87" value="" style="ellipse;whiteSpace=wrap;html=1;aspect=fixed;strokeWidth=2;" vertex="1" parent="1">
          <mxGeometry x="521" y="920" width="80" height="80" as="geometry" />
        </mxCell>
        <mxCell id="YRkSIn1wJ7mnRO5CYGxt-88" value="&lt;div align=&quot;center&quot;&gt;&lt;div&gt;&lt;font style=&quot;line-height: 100%; font-size: 18px;&quot;&gt;P2&lt;/font&gt;&lt;/div&gt;&lt;/div&gt;" style="text;html=1;align=center;verticalAlign=middle;whiteSpace=wrap;rounded=0;" vertex="1" parent="1">
          <mxGeometry x="531" y="936" width="60" height="25" as="geometry" />
        </mxCell>
        <mxCell id="YRkSIn1wJ7mnRO5CYGxt-89" value="" style="ellipse;whiteSpace=wrap;html=1;aspect=fixed;strokeWidth=2;" vertex="1" parent="1">
          <mxGeometry x="120" y="920" width="80" height="80" as="geometry" />
        </mxCell>
        <mxCell id="YRkSIn1wJ7mnRO5CYGxt-90" value="&lt;div align=&quot;center&quot;&gt;&lt;div&gt;&lt;font style=&quot;line-height: 100%; font-size: 18px;&quot;&gt;P1&lt;/font&gt;&lt;/div&gt;&lt;/div&gt;" style="text;html=1;align=center;verticalAlign=middle;whiteSpace=wrap;rounded=0;" vertex="1" parent="1">
          <mxGeometry x="130" y="936" width="60" height="25" as="geometry" />
        </mxCell>
        <mxCell id="YRkSIn1wJ7mnRO5CYGxt-92" value="" style="rounded=0;whiteSpace=wrap;html=1;strokeWidth=2;rotation=30;strokeColor=light-dark(#a51d2d, #ededed);" vertex="1" parent="1">
          <mxGeometry x="170.29" y="799.41" width="102.01" height="40.7" as="geometry" />
        </mxCell>
        <mxCell id="YRkSIn1wJ7mnRO5CYGxt-93" value="&lt;font style=&quot;font-size: 24px;&quot;&gt;Lock1&lt;/font&gt;" style="text;html=1;align=center;verticalAlign=middle;whiteSpace=wrap;rounded=0;rotation=30;" vertex="1" parent="1">
          <mxGeometry x="182" y="806" width="78" height="30" as="geometry" />
        </mxCell>
        <mxCell id="YRkSIn1wJ7mnRO5CYGxt-94" value="" style="endArrow=classic;html=1;rounded=0;strokeWidth=2;exitX=0.5;exitY=1;exitDx=0;exitDy=0;entryX=0.25;entryY=0;entryDx=0;entryDy=0;" edge="1" parent="1" source="YRkSIn1wJ7mnRO5CYGxt-83" target="YRkSIn1wJ7mnRO5CYGxt-92">
          <mxGeometry relative="1" as="geometry">
            <mxPoint x="400" y="580" as="sourcePoint" />
            <mxPoint x="300" y="580" as="targetPoint" />
          </mxGeometry>
        </mxCell>
        <mxCell id="YRkSIn1wJ7mnRO5CYGxt-95" value="&lt;font style=&quot;font-size: 18px;&quot;&gt;1&lt;br&gt;&lt;/font&gt;" style="edgeLabel;resizable=0;html=1;;align=center;verticalAlign=middle;" connectable="0" vertex="1" parent="YRkSIn1wJ7mnRO5CYGxt-94">
          <mxGeometry relative="1" as="geometry" />
        </mxCell>
        <mxCell id="YRkSIn1wJ7mnRO5CYGxt-96" value="" style="endArrow=classic;html=1;rounded=0;strokeWidth=2;exitX=0;exitY=1;exitDx=0;exitDy=0;entryX=0.75;entryY=0;entryDx=0;entryDy=0;" edge="1" parent="1" source="YRkSIn1wJ7mnRO5CYGxt-81" target="YRkSIn1wJ7mnRO5CYGxt-92">
          <mxGeometry relative="1" as="geometry">
            <mxPoint x="690" y="458" as="sourcePoint" />
            <mxPoint x="590" y="458" as="targetPoint" />
          </mxGeometry>
        </mxCell>
        <mxCell id="YRkSIn1wJ7mnRO5CYGxt-97" value="&lt;font style=&quot;font-size: 18px;&quot;&gt;1&lt;br&gt;&lt;/font&gt;" style="edgeLabel;resizable=0;html=1;;align=center;verticalAlign=middle;" connectable="0" vertex="1" parent="YRkSIn1wJ7mnRO5CYGxt-96">
          <mxGeometry relative="1" as="geometry" />
        </mxCell>
        <mxCell id="YRkSIn1wJ7mnRO5CYGxt-98" value="" style="endArrow=classic;html=1;rounded=0;strokeWidth=2;exitX=0.5;exitY=1;exitDx=0;exitDy=0;entryX=0.5;entryY=0;entryDx=0;entryDy=0;" edge="1" parent="1" source="YRkSIn1wJ7mnRO5CYGxt-92" target="YRkSIn1wJ7mnRO5CYGxt-89">
          <mxGeometry relative="1" as="geometry">
            <mxPoint x="700" y="468" as="sourcePoint" />
            <mxPoint x="600" y="468" as="targetPoint" />
          </mxGeometry>
        </mxCell>
        <mxCell id="YRkSIn1wJ7mnRO5CYGxt-99" value="&lt;font style=&quot;font-size: 18px;&quot;&gt;1&lt;br&gt;&lt;/font&gt;" style="edgeLabel;resizable=0;html=1;;align=center;verticalAlign=middle;" connectable="0" vertex="1" parent="YRkSIn1wJ7mnRO5CYGxt-98">
          <mxGeometry relative="1" as="geometry" />
        </mxCell>
        <mxCell id="YRkSIn1wJ7mnRO5CYGxt-100" value="" style="rounded=0;whiteSpace=wrap;html=1;strokeWidth=2;rotation=330;" vertex="1" parent="1">
          <mxGeometry x="447.53" y="800.16" width="102.01" height="40.57" as="geometry" />
        </mxCell>
        <mxCell id="YRkSIn1wJ7mnRO5CYGxt-101" value="&lt;font style=&quot;font-size: 24px;&quot;&gt;Lock2&lt;/font&gt;" style="text;html=1;align=center;verticalAlign=middle;whiteSpace=wrap;rounded=0;rotation=330;" vertex="1" parent="1">
          <mxGeometry x="462" y="807" width="78" height="30" as="geometry" />
        </mxCell>
        <mxCell id="YRkSIn1wJ7mnRO5CYGxt-102" value="" style="endArrow=classic;html=1;rounded=0;strokeWidth=2;exitX=1;exitY=1;exitDx=0;exitDy=0;entryX=0.25;entryY=0;entryDx=0;entryDy=0;" edge="1" parent="1" target="YRkSIn1wJ7mnRO5CYGxt-100" source="YRkSIn1wJ7mnRO5CYGxt-81">
          <mxGeometry relative="1" as="geometry">
            <mxPoint x="460" y="680" as="sourcePoint" />
            <mxPoint x="560" y="580" as="targetPoint" />
          </mxGeometry>
        </mxCell>
        <mxCell id="YRkSIn1wJ7mnRO5CYGxt-103" value="&lt;font style=&quot;font-size: 18px;&quot;&gt;1&lt;br&gt;&lt;/font&gt;" style="edgeLabel;resizable=0;html=1;;align=center;verticalAlign=middle;" connectable="0" vertex="1" parent="YRkSIn1wJ7mnRO5CYGxt-102">
          <mxGeometry relative="1" as="geometry" />
        </mxCell>
        <mxCell id="YRkSIn1wJ7mnRO5CYGxt-104" value="" style="endArrow=classic;html=1;rounded=0;strokeWidth=2;exitX=0.5;exitY=1;exitDx=0;exitDy=0;entryX=0.75;entryY=0;entryDx=0;entryDy=0;" edge="1" parent="1" target="YRkSIn1wJ7mnRO5CYGxt-100" source="YRkSIn1wJ7mnRO5CYGxt-85">
          <mxGeometry relative="1" as="geometry">
            <mxPoint x="592" y="748" as="sourcePoint" />
            <mxPoint x="850" y="458" as="targetPoint" />
          </mxGeometry>
        </mxCell>
        <mxCell id="YRkSIn1wJ7mnRO5CYGxt-105" value="&lt;font style=&quot;font-size: 18px;&quot;&gt;1&lt;br&gt;&lt;/font&gt;" style="edgeLabel;resizable=0;html=1;;align=center;verticalAlign=middle;" connectable="0" vertex="1" parent="YRkSIn1wJ7mnRO5CYGxt-104">
          <mxGeometry relative="1" as="geometry" />
        </mxCell>
        <mxCell id="YRkSIn1wJ7mnRO5CYGxt-106" value="" style="endArrow=classic;html=1;rounded=0;strokeWidth=2;exitX=0.5;exitY=1;exitDx=0;exitDy=0;entryX=0.5;entryY=0;entryDx=0;entryDy=0;" edge="1" parent="1" source="YRkSIn1wJ7mnRO5CYGxt-100" target="YRkSIn1wJ7mnRO5CYGxt-87">
          <mxGeometry relative="1" as="geometry">
            <mxPoint x="960" y="468" as="sourcePoint" />
            <mxPoint x="420" y="920" as="targetPoint" />
          </mxGeometry>
        </mxCell>
        <mxCell id="YRkSIn1wJ7mnRO5CYGxt-107" value="&lt;font style=&quot;font-size: 18px;&quot;&gt;1&lt;br&gt;&lt;/font&gt;" style="edgeLabel;resizable=0;html=1;;align=center;verticalAlign=middle;" connectable="0" vertex="1" parent="YRkSIn1wJ7mnRO5CYGxt-106">
          <mxGeometry relative="1" as="geometry" />
        </mxCell>
        <mxCell id="YRkSIn1wJ7mnRO5CYGxt-115" value="" style="ellipse;whiteSpace=wrap;html=1;aspect=fixed;labelBackgroundColor=none;fillColor=light-dark(#a51d2d, #ededed);strokeColor=light-dark(#a51d2d, #ededed);" vertex="1" parent="1">
          <mxGeometry x="355" y="729" width="10" height="10" as="geometry" />
        </mxCell>
        <mxCell id="YRkSIn1wJ7mnRO5CYGxt-116" value="" style="ellipse;whiteSpace=wrap;html=1;aspect=fixed;labelBackgroundColor=none;fillColor=#000000;" vertex="1" parent="1">
          <mxGeometry x="205.29" y="650" width="10" height="10" as="geometry" />
        </mxCell>
        <mxCell id="YRkSIn1wJ7mnRO5CYGxt-117" value="" style="ellipse;whiteSpace=wrap;html=1;aspect=fixed;labelBackgroundColor=none;fillColor=#000000;" vertex="1" parent="1">
          <mxGeometry x="496.54" y="650" width="10" height="10" as="geometry" />
        </mxCell>
        <mxCell id="YRkSIn1wJ7mnRO5CYGxt-119" value="" style="rounded=0;whiteSpace=wrap;html=1;strokeWidth=2;rotation=0;" vertex="1" parent="1">
          <mxGeometry x="100" y="1060" width="120" height="40" as="geometry" />
        </mxCell>
        <mxCell id="YRkSIn1wJ7mnRO5CYGxt-120" value="&lt;font style=&quot;font-size: 24px;&quot;&gt;Unlock1&lt;/font&gt;" style="text;html=1;align=center;verticalAlign=middle;whiteSpace=wrap;rounded=0;rotation=0;" vertex="1" parent="1">
          <mxGeometry x="121" y="1065" width="78" height="30" as="geometry" />
        </mxCell>
        <mxCell id="YRkSIn1wJ7mnRO5CYGxt-121" value="" style="endArrow=classic;html=1;rounded=0;strokeWidth=2;exitX=0.5;exitY=1;exitDx=0;exitDy=0;entryX=0.5;entryY=0;entryDx=0;entryDy=0;" edge="1" parent="1" source="YRkSIn1wJ7mnRO5CYGxt-89" target="YRkSIn1wJ7mnRO5CYGxt-119">
          <mxGeometry relative="1" as="geometry">
            <mxPoint x="355" y="980" as="sourcePoint" />
            <mxPoint x="310" y="1054" as="targetPoint" />
          </mxGeometry>
        </mxCell>
        <mxCell id="YRkSIn1wJ7mnRO5CYGxt-122" value="&lt;font style=&quot;font-size: 18px;&quot;&gt;1&lt;br&gt;&lt;/font&gt;" style="edgeLabel;resizable=0;html=1;;align=center;verticalAlign=middle;" connectable="0" vertex="1" parent="YRkSIn1wJ7mnRO5CYGxt-121">
          <mxGeometry relative="1" as="geometry" />
        </mxCell>
        <mxCell id="YRkSIn1wJ7mnRO5CYGxt-123" value="" style="endArrow=classic;html=1;rounded=0;strokeWidth=2;exitX=0.5;exitY=1;exitDx=0;exitDy=0;entryX=0.298;entryY=0.952;entryDx=0;entryDy=0;entryPerimeter=0;" edge="1" parent="1" source="YRkSIn1wJ7mnRO5CYGxt-119" target="YRkSIn1wJ7mnRO5CYGxt-81">
          <mxGeometry relative="1" as="geometry">
            <mxPoint x="355" y="1080" as="sourcePoint" />
            <mxPoint x="360" y="780" as="targetPoint" />
            <Array as="points">
              <mxPoint x="160" y="1120" />
              <mxPoint x="280" y="1120" />
            </Array>
          </mxGeometry>
        </mxCell>
        <mxCell id="YRkSIn1wJ7mnRO5CYGxt-124" value="&lt;font style=&quot;font-size: 18px;&quot;&gt;1&lt;br&gt;&lt;/font&gt;" style="edgeLabel;resizable=0;html=1;;align=center;verticalAlign=middle;" connectable="0" vertex="1" parent="YRkSIn1wJ7mnRO5CYGxt-123">
          <mxGeometry relative="1" as="geometry" />
        </mxCell>
        <mxCell id="YRkSIn1wJ7mnRO5CYGxt-125" value="" style="ellipse;whiteSpace=wrap;html=1;aspect=fixed;labelBackgroundColor=none;fillColor=light-dark(#a51d2d, #ededed);strokeColor=#990000;" vertex="1" parent="1">
          <mxGeometry x="222.29" y="650" width="10" height="10" as="geometry" />
        </mxCell>
        <mxCell id="YRkSIn1wJ7mnRO5CYGxt-126" value="" style="ellipse;whiteSpace=wrap;html=1;aspect=fixed;labelBackgroundColor=none;fillColor=#000000;" vertex="1" parent="1">
          <mxGeometry x="187.29" y="650" width="10" height="10" as="geometry" />
        </mxCell>
        <mxCell id="YRkSIn1wJ7mnRO5CYGxt-127" value="" style="ellipse;whiteSpace=wrap;html=1;aspect=fixed;labelBackgroundColor=none;fillColor=#000000;" vertex="1" parent="1">
          <mxGeometry x="513.54" y="650" width="10" height="10" as="geometry" />
        </mxCell>
        <mxCell id="YRkSIn1wJ7mnRO5CYGxt-131" value="" style="rounded=0;whiteSpace=wrap;html=1;strokeWidth=2;rotation=0;" vertex="1" parent="1">
          <mxGeometry x="501" y="1055" width="120" height="40" as="geometry" />
        </mxCell>
        <mxCell id="YRkSIn1wJ7mnRO5CYGxt-132" value="&lt;font style=&quot;font-size: 24px;&quot;&gt;Unlock2&lt;/font&gt;" style="text;html=1;align=center;verticalAlign=middle;whiteSpace=wrap;rounded=0;rotation=0;" vertex="1" parent="1">
          <mxGeometry x="522" y="1060" width="78" height="30" as="geometry" />
        </mxCell>
        <mxCell id="YRkSIn1wJ7mnRO5CYGxt-133" value="" style="endArrow=classic;html=1;rounded=0;strokeWidth=2;entryX=0.5;entryY=0;entryDx=0;entryDy=0;exitX=0.5;exitY=1;exitDx=0;exitDy=0;" edge="1" parent="1" target="YRkSIn1wJ7mnRO5CYGxt-131" source="YRkSIn1wJ7mnRO5CYGxt-87">
          <mxGeometry relative="1" as="geometry">
            <mxPoint x="490" y="1010" as="sourcePoint" />
            <mxPoint x="709" y="1048" as="targetPoint" />
          </mxGeometry>
        </mxCell>
        <mxCell id="YRkSIn1wJ7mnRO5CYGxt-134" value="&lt;font style=&quot;font-size: 18px;&quot;&gt;1&lt;br&gt;&lt;/font&gt;" style="edgeLabel;resizable=0;html=1;;align=center;verticalAlign=middle;" connectable="0" vertex="1" parent="YRkSIn1wJ7mnRO5CYGxt-133">
          <mxGeometry relative="1" as="geometry" />
        </mxCell>
        <mxCell id="YRkSIn1wJ7mnRO5CYGxt-135" value="" style="endArrow=classic;html=1;rounded=0;strokeWidth=2;exitX=0.5;exitY=1;exitDx=0;exitDy=0;entryX=0.694;entryY=0.952;entryDx=0;entryDy=0;entryPerimeter=0;" edge="1" parent="1" source="YRkSIn1wJ7mnRO5CYGxt-131" target="YRkSIn1wJ7mnRO5CYGxt-81">
          <mxGeometry relative="1" as="geometry">
            <mxPoint x="754" y="1074" as="sourcePoint" />
            <mxPoint x="370" y="850" as="targetPoint" />
            <Array as="points">
              <mxPoint x="560" y="1120" />
              <mxPoint x="440" y="1120" />
            </Array>
          </mxGeometry>
        </mxCell>
        <mxCell id="YRkSIn1wJ7mnRO5CYGxt-136" value="&lt;font style=&quot;font-size: 18px;&quot;&gt;1&lt;br&gt;&lt;/font&gt;" style="edgeLabel;resizable=0;html=1;;align=center;verticalAlign=middle;" connectable="0" vertex="1" parent="YRkSIn1wJ7mnRO5CYGxt-135">
          <mxGeometry relative="1" as="geometry" />
        </mxCell>
        <mxCell id="YRkSIn1wJ7mnRO5CYGxt-138" value="" style="ellipse;whiteSpace=wrap;html=1;aspect=fixed;strokeWidth=2;" vertex="1" parent="1">
          <mxGeometry x="960" y="680" width="80" height="80" as="geometry" />
        </mxCell>
        <mxCell id="YRkSIn1wJ7mnRO5CYGxt-139" value="&lt;div align=&quot;center&quot;&gt;&lt;div&gt;&lt;font style=&quot;line-height: 100%; font-size: 18px;&quot;&gt;MUTEX&lt;/font&gt;&lt;/div&gt;&lt;/div&gt;" style="text;html=1;align=center;verticalAlign=middle;whiteSpace=wrap;rounded=0;" vertex="1" parent="1">
          <mxGeometry x="970" y="696" width="60" height="25" as="geometry" />
        </mxCell>
        <mxCell id="YRkSIn1wJ7mnRO5CYGxt-140" value="" style="ellipse;whiteSpace=wrap;html=1;aspect=fixed;strokeWidth=2;" vertex="1" parent="1">
          <mxGeometry x="810.29" y="600" width="80" height="80" as="geometry" />
        </mxCell>
        <mxCell id="YRkSIn1wJ7mnRO5CYGxt-141" value="&lt;div align=&quot;center&quot;&gt;&lt;div&gt;&lt;font style=&quot;line-height: 100%; font-size: 18px;&quot;&gt;Res1&lt;/font&gt;&lt;/div&gt;&lt;/div&gt;" style="text;html=1;align=center;verticalAlign=middle;whiteSpace=wrap;rounded=0;" vertex="1" parent="1">
          <mxGeometry x="820.29" y="616" width="60" height="25" as="geometry" />
        </mxCell>
        <mxCell id="YRkSIn1wJ7mnRO5CYGxt-142" value="" style="ellipse;whiteSpace=wrap;html=1;aspect=fixed;strokeWidth=2;" vertex="1" parent="1">
          <mxGeometry x="1109.54" y="600" width="80" height="80" as="geometry" />
        </mxCell>
        <mxCell id="YRkSIn1wJ7mnRO5CYGxt-143" value="&lt;div align=&quot;center&quot;&gt;&lt;div&gt;&lt;font style=&quot;line-height: 100%; font-size: 18px;&quot;&gt;Res2&lt;/font&gt;&lt;/div&gt;&lt;/div&gt;" style="text;html=1;align=center;verticalAlign=middle;whiteSpace=wrap;rounded=0;" vertex="1" parent="1">
          <mxGeometry x="1119.54" y="616" width="60" height="25" as="geometry" />
        </mxCell>
        <mxCell id="YRkSIn1wJ7mnRO5CYGxt-144" value="" style="ellipse;whiteSpace=wrap;html=1;aspect=fixed;strokeWidth=2;" vertex="1" parent="1">
          <mxGeometry x="1161" y="920" width="80" height="80" as="geometry" />
        </mxCell>
        <mxCell id="YRkSIn1wJ7mnRO5CYGxt-145" value="&lt;div align=&quot;center&quot;&gt;&lt;div&gt;&lt;font style=&quot;line-height: 100%; font-size: 18px;&quot;&gt;P2&lt;/font&gt;&lt;/div&gt;&lt;/div&gt;" style="text;html=1;align=center;verticalAlign=middle;whiteSpace=wrap;rounded=0;" vertex="1" parent="1">
          <mxGeometry x="1171" y="936" width="60" height="25" as="geometry" />
        </mxCell>
        <mxCell id="YRkSIn1wJ7mnRO5CYGxt-146" value="" style="ellipse;whiteSpace=wrap;html=1;aspect=fixed;strokeWidth=2;" vertex="1" parent="1">
          <mxGeometry x="760" y="920" width="80" height="80" as="geometry" />
        </mxCell>
        <mxCell id="YRkSIn1wJ7mnRO5CYGxt-147" value="&lt;div align=&quot;center&quot;&gt;&lt;div&gt;&lt;font style=&quot;line-height: 100%; font-size: 18px;&quot;&gt;P1&lt;/font&gt;&lt;/div&gt;&lt;/div&gt;" style="text;html=1;align=center;verticalAlign=middle;whiteSpace=wrap;rounded=0;" vertex="1" parent="1">
          <mxGeometry x="770" y="936" width="60" height="25" as="geometry" />
        </mxCell>
        <mxCell id="YRkSIn1wJ7mnRO5CYGxt-148" value="" style="rounded=0;whiteSpace=wrap;html=1;strokeWidth=2;rotation=30;fontColor=#660000;strokeColor=light-dark(#a51d2d, #ededed);" vertex="1" parent="1">
          <mxGeometry x="810.29" y="799.41" width="102.01" height="40.7" as="geometry" />
        </mxCell>
        <mxCell id="YRkSIn1wJ7mnRO5CYGxt-149" value="&lt;font style=&quot;font-size: 24px;&quot;&gt;Lock1&lt;/font&gt;" style="text;html=1;align=center;verticalAlign=middle;whiteSpace=wrap;rounded=0;rotation=30;" vertex="1" parent="1">
          <mxGeometry x="822" y="806" width="78" height="30" as="geometry" />
        </mxCell>
        <mxCell id="YRkSIn1wJ7mnRO5CYGxt-150" value="" style="endArrow=classic;html=1;rounded=0;strokeWidth=2;exitX=0.5;exitY=1;exitDx=0;exitDy=0;entryX=0.25;entryY=0;entryDx=0;entryDy=0;" edge="1" parent="1" source="YRkSIn1wJ7mnRO5CYGxt-140" target="YRkSIn1wJ7mnRO5CYGxt-148">
          <mxGeometry relative="1" as="geometry">
            <mxPoint x="1040" y="580" as="sourcePoint" />
            <mxPoint x="940" y="580" as="targetPoint" />
          </mxGeometry>
        </mxCell>
        <mxCell id="YRkSIn1wJ7mnRO5CYGxt-151" value="&lt;font style=&quot;font-size: 18px;&quot;&gt;1&lt;br&gt;&lt;/font&gt;" style="edgeLabel;resizable=0;html=1;;align=center;verticalAlign=middle;" connectable="0" vertex="1" parent="YRkSIn1wJ7mnRO5CYGxt-150">
          <mxGeometry relative="1" as="geometry" />
        </mxCell>
        <mxCell id="YRkSIn1wJ7mnRO5CYGxt-152" value="" style="endArrow=classic;html=1;rounded=0;strokeWidth=2;exitX=0;exitY=1;exitDx=0;exitDy=0;entryX=0.75;entryY=0;entryDx=0;entryDy=0;" edge="1" parent="1" source="YRkSIn1wJ7mnRO5CYGxt-138" target="YRkSIn1wJ7mnRO5CYGxt-148">
          <mxGeometry relative="1" as="geometry">
            <mxPoint x="1330" y="458" as="sourcePoint" />
            <mxPoint x="1230" y="458" as="targetPoint" />
          </mxGeometry>
        </mxCell>
        <mxCell id="YRkSIn1wJ7mnRO5CYGxt-153" value="&lt;font style=&quot;font-size: 18px;&quot;&gt;1&lt;br&gt;&lt;/font&gt;" style="edgeLabel;resizable=0;html=1;;align=center;verticalAlign=middle;" connectable="0" vertex="1" parent="YRkSIn1wJ7mnRO5CYGxt-152">
          <mxGeometry relative="1" as="geometry" />
        </mxCell>
        <mxCell id="YRkSIn1wJ7mnRO5CYGxt-154" value="" style="endArrow=classic;html=1;rounded=0;strokeWidth=2;exitX=0.5;exitY=1;exitDx=0;exitDy=0;entryX=0.5;entryY=0;entryDx=0;entryDy=0;" edge="1" parent="1" source="YRkSIn1wJ7mnRO5CYGxt-148" target="YRkSIn1wJ7mnRO5CYGxt-146">
          <mxGeometry relative="1" as="geometry">
            <mxPoint x="1340" y="468" as="sourcePoint" />
            <mxPoint x="1240" y="468" as="targetPoint" />
          </mxGeometry>
        </mxCell>
        <mxCell id="YRkSIn1wJ7mnRO5CYGxt-155" value="&lt;font style=&quot;font-size: 18px;&quot;&gt;1&lt;br&gt;&lt;/font&gt;" style="edgeLabel;resizable=0;html=1;;align=center;verticalAlign=middle;" connectable="0" vertex="1" parent="YRkSIn1wJ7mnRO5CYGxt-154">
          <mxGeometry relative="1" as="geometry" />
        </mxCell>
        <mxCell id="YRkSIn1wJ7mnRO5CYGxt-156" value="" style="rounded=0;whiteSpace=wrap;html=1;strokeWidth=2;rotation=330;" vertex="1" parent="1">
          <mxGeometry x="1087.53" y="800.16" width="102.01" height="40.57" as="geometry" />
        </mxCell>
        <mxCell id="YRkSIn1wJ7mnRO5CYGxt-157" value="&lt;font style=&quot;font-size: 24px;&quot;&gt;Lock2&lt;/font&gt;" style="text;html=1;align=center;verticalAlign=middle;whiteSpace=wrap;rounded=0;rotation=330;" vertex="1" parent="1">
          <mxGeometry x="1102" y="807" width="78" height="30" as="geometry" />
        </mxCell>
        <mxCell id="YRkSIn1wJ7mnRO5CYGxt-158" value="" style="endArrow=classic;html=1;rounded=0;strokeWidth=2;exitX=1;exitY=1;exitDx=0;exitDy=0;entryX=0.25;entryY=0;entryDx=0;entryDy=0;" edge="1" parent="1" source="YRkSIn1wJ7mnRO5CYGxt-138" target="YRkSIn1wJ7mnRO5CYGxt-156">
          <mxGeometry relative="1" as="geometry">
            <mxPoint x="1100" y="680" as="sourcePoint" />
            <mxPoint x="1200" y="580" as="targetPoint" />
          </mxGeometry>
        </mxCell>
        <mxCell id="YRkSIn1wJ7mnRO5CYGxt-159" value="&lt;font style=&quot;font-size: 18px;&quot;&gt;1&lt;br&gt;&lt;/font&gt;" style="edgeLabel;resizable=0;html=1;;align=center;verticalAlign=middle;" connectable="0" vertex="1" parent="YRkSIn1wJ7mnRO5CYGxt-158">
          <mxGeometry relative="1" as="geometry" />
        </mxCell>
        <mxCell id="YRkSIn1wJ7mnRO5CYGxt-160" value="" style="endArrow=classic;html=1;rounded=0;strokeWidth=2;exitX=0.5;exitY=1;exitDx=0;exitDy=0;entryX=0.75;entryY=0;entryDx=0;entryDy=0;" edge="1" parent="1" source="YRkSIn1wJ7mnRO5CYGxt-142" target="YRkSIn1wJ7mnRO5CYGxt-156">
          <mxGeometry relative="1" as="geometry">
            <mxPoint x="1232" y="748" as="sourcePoint" />
            <mxPoint x="1490" y="458" as="targetPoint" />
          </mxGeometry>
        </mxCell>
        <mxCell id="YRkSIn1wJ7mnRO5CYGxt-161" value="&lt;font style=&quot;font-size: 18px;&quot;&gt;1&lt;br&gt;&lt;/font&gt;" style="edgeLabel;resizable=0;html=1;;align=center;verticalAlign=middle;" connectable="0" vertex="1" parent="YRkSIn1wJ7mnRO5CYGxt-160">
          <mxGeometry relative="1" as="geometry" />
        </mxCell>
        <mxCell id="YRkSIn1wJ7mnRO5CYGxt-162" value="" style="endArrow=classic;html=1;rounded=0;strokeWidth=2;exitX=0.5;exitY=1;exitDx=0;exitDy=0;entryX=0.5;entryY=0;entryDx=0;entryDy=0;" edge="1" parent="1" source="YRkSIn1wJ7mnRO5CYGxt-156" target="YRkSIn1wJ7mnRO5CYGxt-144">
          <mxGeometry relative="1" as="geometry">
            <mxPoint x="1600" y="468" as="sourcePoint" />
            <mxPoint x="1060" y="920" as="targetPoint" />
          </mxGeometry>
        </mxCell>
        <mxCell id="YRkSIn1wJ7mnRO5CYGxt-163" value="&lt;font style=&quot;font-size: 18px;&quot;&gt;1&lt;br&gt;&lt;/font&gt;" style="edgeLabel;resizable=0;html=1;;align=center;verticalAlign=middle;" connectable="0" vertex="1" parent="YRkSIn1wJ7mnRO5CYGxt-162">
          <mxGeometry relative="1" as="geometry" />
        </mxCell>
        <mxCell id="YRkSIn1wJ7mnRO5CYGxt-164" value="" style="ellipse;whiteSpace=wrap;html=1;aspect=fixed;labelBackgroundColor=none;fillColor=#000000;" vertex="1" parent="1">
          <mxGeometry x="795" y="970" width="10" height="10" as="geometry" />
        </mxCell>
        <mxCell id="YRkSIn1wJ7mnRO5CYGxt-165" value="" style="ellipse;whiteSpace=wrap;html=1;aspect=fixed;labelBackgroundColor=none;fillColor=#000000;" vertex="1" parent="1">
          <mxGeometry x="853.29" y="650" width="10" height="10" as="geometry" />
        </mxCell>
        <mxCell id="YRkSIn1wJ7mnRO5CYGxt-166" value="" style="ellipse;whiteSpace=wrap;html=1;aspect=fixed;labelBackgroundColor=none;fillColor=#000000;" vertex="1" parent="1">
          <mxGeometry x="1136.54" y="650" width="10" height="10" as="geometry" />
        </mxCell>
        <mxCell id="YRkSIn1wJ7mnRO5CYGxt-167" value="" style="rounded=0;whiteSpace=wrap;html=1;strokeWidth=2;rotation=0;" vertex="1" parent="1">
          <mxGeometry x="740" y="1060" width="120" height="40" as="geometry" />
        </mxCell>
        <mxCell id="YRkSIn1wJ7mnRO5CYGxt-168" value="&lt;font style=&quot;font-size: 24px;&quot;&gt;Unlock1&lt;/font&gt;" style="text;html=1;align=center;verticalAlign=middle;whiteSpace=wrap;rounded=0;rotation=0;" vertex="1" parent="1">
          <mxGeometry x="761" y="1065" width="78" height="30" as="geometry" />
        </mxCell>
        <mxCell id="YRkSIn1wJ7mnRO5CYGxt-169" value="" style="endArrow=classic;html=1;rounded=0;strokeWidth=2;exitX=0.5;exitY=1;exitDx=0;exitDy=0;entryX=0.5;entryY=0;entryDx=0;entryDy=0;" edge="1" parent="1" source="YRkSIn1wJ7mnRO5CYGxt-146" target="YRkSIn1wJ7mnRO5CYGxt-167">
          <mxGeometry relative="1" as="geometry">
            <mxPoint x="995" y="980" as="sourcePoint" />
            <mxPoint x="950" y="1054" as="targetPoint" />
          </mxGeometry>
        </mxCell>
        <mxCell id="YRkSIn1wJ7mnRO5CYGxt-170" value="&lt;font style=&quot;font-size: 18px;&quot;&gt;1&lt;br&gt;&lt;/font&gt;" style="edgeLabel;resizable=0;html=1;;align=center;verticalAlign=middle;" connectable="0" vertex="1" parent="YRkSIn1wJ7mnRO5CYGxt-169">
          <mxGeometry relative="1" as="geometry" />
        </mxCell>
        <mxCell id="YRkSIn1wJ7mnRO5CYGxt-171" value="" style="endArrow=classic;html=1;rounded=0;strokeWidth=2;exitX=0.5;exitY=1;exitDx=0;exitDy=0;entryX=0.298;entryY=0.952;entryDx=0;entryDy=0;entryPerimeter=0;" edge="1" parent="1" source="YRkSIn1wJ7mnRO5CYGxt-167" target="YRkSIn1wJ7mnRO5CYGxt-138">
          <mxGeometry relative="1" as="geometry">
            <mxPoint x="995" y="1080" as="sourcePoint" />
            <mxPoint x="1000" y="780" as="targetPoint" />
            <Array as="points">
              <mxPoint x="800" y="1120" />
              <mxPoint x="920" y="1120" />
            </Array>
          </mxGeometry>
        </mxCell>
        <mxCell id="YRkSIn1wJ7mnRO5CYGxt-172" value="&lt;font style=&quot;font-size: 18px;&quot;&gt;1&lt;br&gt;&lt;/font&gt;" style="edgeLabel;resizable=0;html=1;;align=center;verticalAlign=middle;" connectable="0" vertex="1" parent="YRkSIn1wJ7mnRO5CYGxt-171">
          <mxGeometry relative="1" as="geometry" />
        </mxCell>
        <mxCell id="YRkSIn1wJ7mnRO5CYGxt-174" value="" style="ellipse;whiteSpace=wrap;html=1;aspect=fixed;labelBackgroundColor=none;fillColor=#000000;" vertex="1" parent="1">
          <mxGeometry x="835.29" y="650" width="10" height="10" as="geometry" />
        </mxCell>
        <mxCell id="YRkSIn1wJ7mnRO5CYGxt-175" value="" style="ellipse;whiteSpace=wrap;html=1;aspect=fixed;labelBackgroundColor=none;fillColor=#000000;" vertex="1" parent="1">
          <mxGeometry x="1153.54" y="650" width="10" height="10" as="geometry" />
        </mxCell>
        <mxCell id="YRkSIn1wJ7mnRO5CYGxt-176" value="" style="rounded=0;whiteSpace=wrap;html=1;strokeWidth=2;rotation=0;" vertex="1" parent="1">
          <mxGeometry x="1141" y="1055" width="120" height="40" as="geometry" />
        </mxCell>
        <mxCell id="YRkSIn1wJ7mnRO5CYGxt-177" value="&lt;font style=&quot;font-size: 24px;&quot;&gt;Unlock2&lt;/font&gt;" style="text;html=1;align=center;verticalAlign=middle;whiteSpace=wrap;rounded=0;rotation=0;" vertex="1" parent="1">
          <mxGeometry x="1162" y="1060" width="78" height="30" as="geometry" />
        </mxCell>
        <mxCell id="YRkSIn1wJ7mnRO5CYGxt-178" value="" style="endArrow=classic;html=1;rounded=0;strokeWidth=2;entryX=0.5;entryY=0;entryDx=0;entryDy=0;exitX=0.5;exitY=1;exitDx=0;exitDy=0;" edge="1" parent="1" source="YRkSIn1wJ7mnRO5CYGxt-144" target="YRkSIn1wJ7mnRO5CYGxt-176">
          <mxGeometry relative="1" as="geometry">
            <mxPoint x="1130" y="1010" as="sourcePoint" />
            <mxPoint x="1349" y="1048" as="targetPoint" />
          </mxGeometry>
        </mxCell>
        <mxCell id="YRkSIn1wJ7mnRO5CYGxt-179" value="&lt;font style=&quot;font-size: 18px;&quot;&gt;1&lt;br&gt;&lt;/font&gt;" style="edgeLabel;resizable=0;html=1;;align=center;verticalAlign=middle;" connectable="0" vertex="1" parent="YRkSIn1wJ7mnRO5CYGxt-178">
          <mxGeometry relative="1" as="geometry" />
        </mxCell>
        <mxCell id="YRkSIn1wJ7mnRO5CYGxt-180" value="" style="endArrow=classic;html=1;rounded=0;strokeWidth=2;exitX=0.5;exitY=1;exitDx=0;exitDy=0;entryX=0.694;entryY=0.952;entryDx=0;entryDy=0;entryPerimeter=0;" edge="1" parent="1" source="YRkSIn1wJ7mnRO5CYGxt-176" target="YRkSIn1wJ7mnRO5CYGxt-138">
          <mxGeometry relative="1" as="geometry">
            <mxPoint x="1394" y="1074" as="sourcePoint" />
            <mxPoint x="1010" y="850" as="targetPoint" />
            <Array as="points">
              <mxPoint x="1200" y="1120" />
              <mxPoint x="1080" y="1120" />
            </Array>
          </mxGeometry>
        </mxCell>
        <mxCell id="YRkSIn1wJ7mnRO5CYGxt-181" value="&lt;font style=&quot;font-size: 18px;&quot;&gt;1&lt;br&gt;&lt;/font&gt;" style="edgeLabel;resizable=0;html=1;;align=center;verticalAlign=middle;" connectable="0" vertex="1" parent="YRkSIn1wJ7mnRO5CYGxt-180">
          <mxGeometry relative="1" as="geometry" />
        </mxCell>
        <mxCell id="YRkSIn1wJ7mnRO5CYGxt-182" value="" style="ellipse;whiteSpace=wrap;html=1;aspect=fixed;strokeWidth=2;" vertex="1" parent="1">
          <mxGeometry x="1590" y="680" width="80" height="80" as="geometry" />
        </mxCell>
        <mxCell id="YRkSIn1wJ7mnRO5CYGxt-183" value="&lt;div align=&quot;center&quot;&gt;&lt;div&gt;&lt;font style=&quot;line-height: 100%; font-size: 18px;&quot;&gt;MUTEX&lt;/font&gt;&lt;/div&gt;&lt;/div&gt;" style="text;html=1;align=center;verticalAlign=middle;whiteSpace=wrap;rounded=0;" vertex="1" parent="1">
          <mxGeometry x="1600" y="696" width="60" height="25" as="geometry" />
        </mxCell>
        <mxCell id="YRkSIn1wJ7mnRO5CYGxt-184" value="" style="ellipse;whiteSpace=wrap;html=1;aspect=fixed;strokeWidth=2;" vertex="1" parent="1">
          <mxGeometry x="1440.29" y="600" width="80" height="80" as="geometry" />
        </mxCell>
        <mxCell id="YRkSIn1wJ7mnRO5CYGxt-185" value="&lt;div align=&quot;center&quot;&gt;&lt;div&gt;&lt;font style=&quot;line-height: 100%; font-size: 18px;&quot;&gt;Res1&lt;/font&gt;&lt;/div&gt;&lt;/div&gt;" style="text;html=1;align=center;verticalAlign=middle;whiteSpace=wrap;rounded=0;" vertex="1" parent="1">
          <mxGeometry x="1450.29" y="616" width="60" height="25" as="geometry" />
        </mxCell>
        <mxCell id="YRkSIn1wJ7mnRO5CYGxt-186" value="" style="ellipse;whiteSpace=wrap;html=1;aspect=fixed;strokeWidth=2;" vertex="1" parent="1">
          <mxGeometry x="1739.54" y="600" width="80" height="80" as="geometry" />
        </mxCell>
        <mxCell id="YRkSIn1wJ7mnRO5CYGxt-187" value="&lt;div align=&quot;center&quot;&gt;&lt;div&gt;&lt;font style=&quot;line-height: 100%; font-size: 18px;&quot;&gt;Res2&lt;/font&gt;&lt;/div&gt;&lt;/div&gt;" style="text;html=1;align=center;verticalAlign=middle;whiteSpace=wrap;rounded=0;" vertex="1" parent="1">
          <mxGeometry x="1749.54" y="616" width="60" height="25" as="geometry" />
        </mxCell>
        <mxCell id="YRkSIn1wJ7mnRO5CYGxt-188" value="" style="ellipse;whiteSpace=wrap;html=1;aspect=fixed;strokeWidth=2;" vertex="1" parent="1">
          <mxGeometry x="1791" y="920" width="80" height="80" as="geometry" />
        </mxCell>
        <mxCell id="YRkSIn1wJ7mnRO5CYGxt-189" value="&lt;div align=&quot;center&quot;&gt;&lt;div&gt;&lt;font style=&quot;line-height: 100%; font-size: 18px;&quot;&gt;P2&lt;/font&gt;&lt;/div&gt;&lt;/div&gt;" style="text;html=1;align=center;verticalAlign=middle;whiteSpace=wrap;rounded=0;" vertex="1" parent="1">
          <mxGeometry x="1801" y="936" width="60" height="25" as="geometry" />
        </mxCell>
        <mxCell id="YRkSIn1wJ7mnRO5CYGxt-190" value="" style="ellipse;whiteSpace=wrap;html=1;aspect=fixed;strokeWidth=2;" vertex="1" parent="1">
          <mxGeometry x="1390" y="920" width="80" height="80" as="geometry" />
        </mxCell>
        <mxCell id="YRkSIn1wJ7mnRO5CYGxt-191" value="&lt;div align=&quot;center&quot;&gt;&lt;div&gt;&lt;font style=&quot;line-height: 100%; font-size: 18px;&quot;&gt;P1&lt;/font&gt;&lt;/div&gt;&lt;/div&gt;" style="text;html=1;align=center;verticalAlign=middle;whiteSpace=wrap;rounded=0;" vertex="1" parent="1">
          <mxGeometry x="1400" y="936" width="60" height="25" as="geometry" />
        </mxCell>
        <mxCell id="YRkSIn1wJ7mnRO5CYGxt-192" value="" style="rounded=0;whiteSpace=wrap;html=1;strokeWidth=2;rotation=30;" vertex="1" parent="1">
          <mxGeometry x="1440.29" y="799.41" width="102.01" height="40.7" as="geometry" />
        </mxCell>
        <mxCell id="YRkSIn1wJ7mnRO5CYGxt-193" value="&lt;font style=&quot;font-size: 24px;&quot;&gt;Lock1&lt;/font&gt;" style="text;html=1;align=center;verticalAlign=middle;whiteSpace=wrap;rounded=0;rotation=30;" vertex="1" parent="1">
          <mxGeometry x="1452" y="806" width="78" height="30" as="geometry" />
        </mxCell>
        <mxCell id="YRkSIn1wJ7mnRO5CYGxt-194" value="" style="endArrow=classic;html=1;rounded=0;strokeWidth=2;exitX=0.5;exitY=1;exitDx=0;exitDy=0;entryX=0.25;entryY=0;entryDx=0;entryDy=0;" edge="1" parent="1" source="YRkSIn1wJ7mnRO5CYGxt-184" target="YRkSIn1wJ7mnRO5CYGxt-192">
          <mxGeometry relative="1" as="geometry">
            <mxPoint x="1670" y="580" as="sourcePoint" />
            <mxPoint x="1570" y="580" as="targetPoint" />
          </mxGeometry>
        </mxCell>
        <mxCell id="YRkSIn1wJ7mnRO5CYGxt-195" value="&lt;font style=&quot;font-size: 18px;&quot;&gt;1&lt;br&gt;&lt;/font&gt;" style="edgeLabel;resizable=0;html=1;;align=center;verticalAlign=middle;" connectable="0" vertex="1" parent="YRkSIn1wJ7mnRO5CYGxt-194">
          <mxGeometry relative="1" as="geometry" />
        </mxCell>
        <mxCell id="YRkSIn1wJ7mnRO5CYGxt-196" value="" style="endArrow=classic;html=1;rounded=0;strokeWidth=2;exitX=0;exitY=1;exitDx=0;exitDy=0;entryX=0.75;entryY=0;entryDx=0;entryDy=0;" edge="1" parent="1" source="YRkSIn1wJ7mnRO5CYGxt-182" target="YRkSIn1wJ7mnRO5CYGxt-192">
          <mxGeometry relative="1" as="geometry">
            <mxPoint x="1960" y="458" as="sourcePoint" />
            <mxPoint x="1860" y="458" as="targetPoint" />
          </mxGeometry>
        </mxCell>
        <mxCell id="YRkSIn1wJ7mnRO5CYGxt-197" value="&lt;font style=&quot;font-size: 18px;&quot;&gt;1&lt;br&gt;&lt;/font&gt;" style="edgeLabel;resizable=0;html=1;;align=center;verticalAlign=middle;" connectable="0" vertex="1" parent="YRkSIn1wJ7mnRO5CYGxt-196">
          <mxGeometry relative="1" as="geometry" />
        </mxCell>
        <mxCell id="YRkSIn1wJ7mnRO5CYGxt-198" value="" style="endArrow=classic;html=1;rounded=0;strokeWidth=2;exitX=0.5;exitY=1;exitDx=0;exitDy=0;entryX=0.5;entryY=0;entryDx=0;entryDy=0;" edge="1" parent="1" source="YRkSIn1wJ7mnRO5CYGxt-192" target="YRkSIn1wJ7mnRO5CYGxt-190">
          <mxGeometry relative="1" as="geometry">
            <mxPoint x="1970" y="468" as="sourcePoint" />
            <mxPoint x="1870" y="468" as="targetPoint" />
          </mxGeometry>
        </mxCell>
        <mxCell id="YRkSIn1wJ7mnRO5CYGxt-199" value="&lt;font style=&quot;font-size: 18px;&quot;&gt;1&lt;br&gt;&lt;/font&gt;" style="edgeLabel;resizable=0;html=1;;align=center;verticalAlign=middle;" connectable="0" vertex="1" parent="YRkSIn1wJ7mnRO5CYGxt-198">
          <mxGeometry relative="1" as="geometry" />
        </mxCell>
        <mxCell id="YRkSIn1wJ7mnRO5CYGxt-200" value="" style="rounded=0;whiteSpace=wrap;html=1;strokeWidth=2;rotation=330;" vertex="1" parent="1">
          <mxGeometry x="1717.53" y="800.16" width="102.01" height="40.57" as="geometry" />
        </mxCell>
        <mxCell id="YRkSIn1wJ7mnRO5CYGxt-201" value="&lt;font style=&quot;font-size: 24px;&quot;&gt;Lock2&lt;/font&gt;" style="text;html=1;align=center;verticalAlign=middle;whiteSpace=wrap;rounded=0;rotation=330;" vertex="1" parent="1">
          <mxGeometry x="1732" y="807" width="78" height="30" as="geometry" />
        </mxCell>
        <mxCell id="YRkSIn1wJ7mnRO5CYGxt-202" value="" style="endArrow=classic;html=1;rounded=0;strokeWidth=2;exitX=1;exitY=1;exitDx=0;exitDy=0;entryX=0.25;entryY=0;entryDx=0;entryDy=0;" edge="1" parent="1" source="YRkSIn1wJ7mnRO5CYGxt-182" target="YRkSIn1wJ7mnRO5CYGxt-200">
          <mxGeometry relative="1" as="geometry">
            <mxPoint x="1730" y="680" as="sourcePoint" />
            <mxPoint x="1830" y="580" as="targetPoint" />
          </mxGeometry>
        </mxCell>
        <mxCell id="YRkSIn1wJ7mnRO5CYGxt-203" value="&lt;font style=&quot;font-size: 18px;&quot;&gt;1&lt;br&gt;&lt;/font&gt;" style="edgeLabel;resizable=0;html=1;;align=center;verticalAlign=middle;" connectable="0" vertex="1" parent="YRkSIn1wJ7mnRO5CYGxt-202">
          <mxGeometry relative="1" as="geometry" />
        </mxCell>
        <mxCell id="YRkSIn1wJ7mnRO5CYGxt-204" value="" style="endArrow=classic;html=1;rounded=0;strokeWidth=2;exitX=0.5;exitY=1;exitDx=0;exitDy=0;entryX=0.75;entryY=0;entryDx=0;entryDy=0;" edge="1" parent="1" source="YRkSIn1wJ7mnRO5CYGxt-186" target="YRkSIn1wJ7mnRO5CYGxt-200">
          <mxGeometry relative="1" as="geometry">
            <mxPoint x="1862" y="748" as="sourcePoint" />
            <mxPoint x="2120" y="458" as="targetPoint" />
          </mxGeometry>
        </mxCell>
        <mxCell id="YRkSIn1wJ7mnRO5CYGxt-205" value="&lt;font style=&quot;font-size: 18px;&quot;&gt;1&lt;br&gt;&lt;/font&gt;" style="edgeLabel;resizable=0;html=1;;align=center;verticalAlign=middle;" connectable="0" vertex="1" parent="YRkSIn1wJ7mnRO5CYGxt-204">
          <mxGeometry relative="1" as="geometry" />
        </mxCell>
        <mxCell id="YRkSIn1wJ7mnRO5CYGxt-206" value="" style="endArrow=classic;html=1;rounded=0;strokeWidth=2;exitX=0.5;exitY=1;exitDx=0;exitDy=0;entryX=0.5;entryY=0;entryDx=0;entryDy=0;" edge="1" parent="1" source="YRkSIn1wJ7mnRO5CYGxt-200" target="YRkSIn1wJ7mnRO5CYGxt-188">
          <mxGeometry relative="1" as="geometry">
            <mxPoint x="2230" y="468" as="sourcePoint" />
            <mxPoint x="1690" y="920" as="targetPoint" />
          </mxGeometry>
        </mxCell>
        <mxCell id="YRkSIn1wJ7mnRO5CYGxt-207" value="&lt;font style=&quot;font-size: 18px;&quot;&gt;1&lt;br&gt;&lt;/font&gt;" style="edgeLabel;resizable=0;html=1;;align=center;verticalAlign=middle;" connectable="0" vertex="1" parent="YRkSIn1wJ7mnRO5CYGxt-206">
          <mxGeometry relative="1" as="geometry" />
        </mxCell>
        <mxCell id="YRkSIn1wJ7mnRO5CYGxt-208" value="" style="ellipse;whiteSpace=wrap;html=1;aspect=fixed;labelBackgroundColor=none;fillColor=#000000;" vertex="1" parent="1">
          <mxGeometry x="1625" y="729" width="10" height="10" as="geometry" />
        </mxCell>
        <mxCell id="YRkSIn1wJ7mnRO5CYGxt-210" value="" style="ellipse;whiteSpace=wrap;html=1;aspect=fixed;labelBackgroundColor=none;fillColor=#000000;" vertex="1" parent="1">
          <mxGeometry x="1766.54" y="650" width="10" height="10" as="geometry" />
        </mxCell>
        <mxCell id="YRkSIn1wJ7mnRO5CYGxt-211" value="" style="rounded=0;whiteSpace=wrap;html=1;strokeWidth=2;rotation=0;strokeColor=light-dark(#a51d2d, #ededed);" vertex="1" parent="1">
          <mxGeometry x="1370" y="1060" width="120" height="40" as="geometry" />
        </mxCell>
        <mxCell id="YRkSIn1wJ7mnRO5CYGxt-212" value="&lt;font style=&quot;font-size: 24px;&quot;&gt;Unlock1&lt;/font&gt;" style="text;html=1;align=center;verticalAlign=middle;whiteSpace=wrap;rounded=0;rotation=0;" vertex="1" parent="1">
          <mxGeometry x="1391" y="1065" width="78" height="30" as="geometry" />
        </mxCell>
        <mxCell id="YRkSIn1wJ7mnRO5CYGxt-213" value="" style="endArrow=classic;html=1;rounded=0;strokeWidth=2;exitX=0.5;exitY=1;exitDx=0;exitDy=0;entryX=0.5;entryY=0;entryDx=0;entryDy=0;" edge="1" parent="1" source="YRkSIn1wJ7mnRO5CYGxt-190" target="YRkSIn1wJ7mnRO5CYGxt-211">
          <mxGeometry relative="1" as="geometry">
            <mxPoint x="1625" y="980" as="sourcePoint" />
            <mxPoint x="1580" y="1054" as="targetPoint" />
          </mxGeometry>
        </mxCell>
        <mxCell id="YRkSIn1wJ7mnRO5CYGxt-214" value="&lt;font style=&quot;font-size: 18px;&quot;&gt;1&lt;br&gt;&lt;/font&gt;" style="edgeLabel;resizable=0;html=1;;align=center;verticalAlign=middle;" connectable="0" vertex="1" parent="YRkSIn1wJ7mnRO5CYGxt-213">
          <mxGeometry relative="1" as="geometry" />
        </mxCell>
        <mxCell id="YRkSIn1wJ7mnRO5CYGxt-215" value="" style="endArrow=classic;html=1;rounded=0;strokeWidth=2;exitX=0.5;exitY=1;exitDx=0;exitDy=0;entryX=0.298;entryY=0.952;entryDx=0;entryDy=0;entryPerimeter=0;" edge="1" parent="1" source="YRkSIn1wJ7mnRO5CYGxt-211" target="YRkSIn1wJ7mnRO5CYGxt-182">
          <mxGeometry relative="1" as="geometry">
            <mxPoint x="1625" y="1080" as="sourcePoint" />
            <mxPoint x="1630" y="780" as="targetPoint" />
            <Array as="points">
              <mxPoint x="1430" y="1120" />
              <mxPoint x="1550" y="1120" />
            </Array>
          </mxGeometry>
        </mxCell>
        <mxCell id="YRkSIn1wJ7mnRO5CYGxt-216" value="&lt;font style=&quot;font-size: 18px;&quot;&gt;1&lt;br&gt;&lt;/font&gt;" style="edgeLabel;resizable=0;html=1;;align=center;verticalAlign=middle;" connectable="0" vertex="1" parent="YRkSIn1wJ7mnRO5CYGxt-215">
          <mxGeometry relative="1" as="geometry" />
        </mxCell>
        <mxCell id="YRkSIn1wJ7mnRO5CYGxt-217" value="" style="ellipse;whiteSpace=wrap;html=1;aspect=fixed;labelBackgroundColor=none;fillColor=#000000;" vertex="1" parent="1">
          <mxGeometry x="1484.29" y="650" width="10" height="10" as="geometry" />
        </mxCell>
        <mxCell id="YRkSIn1wJ7mnRO5CYGxt-218" value="" style="ellipse;whiteSpace=wrap;html=1;aspect=fixed;labelBackgroundColor=none;fillColor=#000000;" vertex="1" parent="1">
          <mxGeometry x="1466.29" y="650" width="10" height="10" as="geometry" />
        </mxCell>
        <mxCell id="YRkSIn1wJ7mnRO5CYGxt-219" value="" style="ellipse;whiteSpace=wrap;html=1;aspect=fixed;labelBackgroundColor=none;fillColor=#000000;" vertex="1" parent="1">
          <mxGeometry x="1783.54" y="650" width="10" height="10" as="geometry" />
        </mxCell>
        <mxCell id="YRkSIn1wJ7mnRO5CYGxt-220" value="" style="rounded=0;whiteSpace=wrap;html=1;strokeWidth=2;rotation=0;" vertex="1" parent="1">
          <mxGeometry x="1771" y="1055" width="120" height="40" as="geometry" />
        </mxCell>
        <mxCell id="YRkSIn1wJ7mnRO5CYGxt-221" value="&lt;font style=&quot;font-size: 24px;&quot;&gt;Unlock2&lt;/font&gt;" style="text;html=1;align=center;verticalAlign=middle;whiteSpace=wrap;rounded=0;rotation=0;" vertex="1" parent="1">
          <mxGeometry x="1792" y="1060" width="78" height="30" as="geometry" />
        </mxCell>
        <mxCell id="YRkSIn1wJ7mnRO5CYGxt-222" value="" style="endArrow=classic;html=1;rounded=0;strokeWidth=2;entryX=0.5;entryY=0;entryDx=0;entryDy=0;exitX=0.5;exitY=1;exitDx=0;exitDy=0;" edge="1" parent="1" source="YRkSIn1wJ7mnRO5CYGxt-188" target="YRkSIn1wJ7mnRO5CYGxt-220">
          <mxGeometry relative="1" as="geometry">
            <mxPoint x="1760" y="1010" as="sourcePoint" />
            <mxPoint x="1979" y="1048" as="targetPoint" />
          </mxGeometry>
        </mxCell>
        <mxCell id="YRkSIn1wJ7mnRO5CYGxt-223" value="&lt;font style=&quot;font-size: 18px;&quot;&gt;1&lt;br&gt;&lt;/font&gt;" style="edgeLabel;resizable=0;html=1;;align=center;verticalAlign=middle;" connectable="0" vertex="1" parent="YRkSIn1wJ7mnRO5CYGxt-222">
          <mxGeometry relative="1" as="geometry" />
        </mxCell>
        <mxCell id="YRkSIn1wJ7mnRO5CYGxt-224" value="" style="endArrow=classic;html=1;rounded=0;strokeWidth=2;exitX=0.5;exitY=1;exitDx=0;exitDy=0;entryX=0.694;entryY=0.952;entryDx=0;entryDy=0;entryPerimeter=0;" edge="1" parent="1" source="YRkSIn1wJ7mnRO5CYGxt-220" target="YRkSIn1wJ7mnRO5CYGxt-182">
          <mxGeometry relative="1" as="geometry">
            <mxPoint x="2024" y="1074" as="sourcePoint" />
            <mxPoint x="1640" y="850" as="targetPoint" />
            <Array as="points">
              <mxPoint x="1830" y="1120" />
              <mxPoint x="1710" y="1120" />
            </Array>
          </mxGeometry>
        </mxCell>
        <mxCell id="YRkSIn1wJ7mnRO5CYGxt-225" value="&lt;font style=&quot;font-size: 18px;&quot;&gt;1&lt;br&gt;&lt;/font&gt;" style="edgeLabel;resizable=0;html=1;;align=center;verticalAlign=middle;" connectable="0" vertex="1" parent="YRkSIn1wJ7mnRO5CYGxt-224">
          <mxGeometry relative="1" as="geometry" />
        </mxCell>
        <mxCell id="YRkSIn1wJ7mnRO5CYGxt-226" value="" style="ellipse;whiteSpace=wrap;html=1;aspect=fixed;strokeWidth=2;" vertex="1" parent="1">
          <mxGeometry x="2360" y="560" width="80" height="80" as="geometry" />
        </mxCell>
        <mxCell id="YRkSIn1wJ7mnRO5CYGxt-227" value="&lt;div align=&quot;center&quot;&gt;&lt;div&gt;&lt;font style=&quot;line-height: 100%; font-size: 18px;&quot;&gt;Phil1&lt;/font&gt;&lt;/div&gt;&lt;/div&gt;" style="text;html=1;align=center;verticalAlign=middle;whiteSpace=wrap;rounded=0;" vertex="1" parent="1">
          <mxGeometry x="2370" y="576" width="60" height="25" as="geometry" />
        </mxCell>
        <mxCell id="YRkSIn1wJ7mnRO5CYGxt-228" value="" style="ellipse;whiteSpace=wrap;html=1;aspect=fixed;strokeWidth=2;" vertex="1" parent="1">
          <mxGeometry x="2150" y="808.5" width="80" height="80" as="geometry" />
        </mxCell>
        <mxCell id="YRkSIn1wJ7mnRO5CYGxt-229" value="&lt;div align=&quot;center&quot;&gt;&lt;div&gt;&lt;font style=&quot;line-height: 100%; font-size: 18px;&quot;&gt;Fork1&lt;/font&gt;&lt;/div&gt;&lt;/div&gt;" style="text;html=1;align=center;verticalAlign=middle;whiteSpace=wrap;rounded=0;" vertex="1" parent="1">
          <mxGeometry x="2160" y="824.5" width="60" height="25" as="geometry" />
        </mxCell>
        <mxCell id="YRkSIn1wJ7mnRO5CYGxt-230" value="" style="ellipse;whiteSpace=wrap;html=1;aspect=fixed;strokeWidth=2;" vertex="1" parent="1">
          <mxGeometry x="2342.01" y="260" width="80" height="80" as="geometry" />
        </mxCell>
        <mxCell id="YRkSIn1wJ7mnRO5CYGxt-231" value="&lt;div align=&quot;center&quot;&gt;&lt;div&gt;&lt;font style=&quot;line-height: 100%; font-size: 18px;&quot;&gt;Fork2&lt;/font&gt;&lt;/div&gt;&lt;/div&gt;" style="text;html=1;align=center;verticalAlign=middle;whiteSpace=wrap;rounded=0;" vertex="1" parent="1">
          <mxGeometry x="2352.01" y="276" width="60" height="25" as="geometry" />
        </mxCell>
        <mxCell id="YRkSIn1wJ7mnRO5CYGxt-232" value="" style="rounded=0;whiteSpace=wrap;html=1;strokeWidth=2;rotation=296;strokeColor=light-dark(#a51d2d, #ededed);" vertex="1" parent="1">
          <mxGeometry x="2240" y="527.43" width="102.01" height="40.57" as="geometry" />
        </mxCell>
        <mxCell id="YRkSIn1wJ7mnRO5CYGxt-233" value="&lt;font style=&quot;font-size: 24px;&quot;&gt;Take&lt;/font&gt;" style="text;html=1;align=center;verticalAlign=middle;whiteSpace=wrap;rounded=0;rotation=296;" vertex="1" parent="1">
          <mxGeometry x="2252.0100000000007" y="532" width="78" height="30" as="geometry" />
        </mxCell>
        <mxCell id="YRkSIn1wJ7mnRO5CYGxt-234" value="" style="endArrow=classic;html=1;rounded=0;strokeWidth=2;exitX=0.5;exitY=1;exitDx=0;exitDy=0;entryX=0.041;entryY=0.324;entryDx=0;entryDy=0;entryPerimeter=0;strokeColor=light-dark(#a51d2d, #ededed);" edge="1" parent="1" source="YRkSIn1wJ7mnRO5CYGxt-232" target="YRkSIn1wJ7mnRO5CYGxt-226">
          <mxGeometry relative="1" as="geometry">
            <mxPoint x="2318" y="670" as="sourcePoint" />
            <mxPoint x="2320" y="620" as="targetPoint" />
          </mxGeometry>
        </mxCell>
        <mxCell id="YRkSIn1wJ7mnRO5CYGxt-235" value="&lt;font style=&quot;font-size: 18px;&quot;&gt;2&lt;br&gt;&lt;/font&gt;" style="edgeLabel;resizable=0;html=1;;align=center;verticalAlign=middle;" connectable="0" vertex="1" parent="YRkSIn1wJ7mnRO5CYGxt-234">
          <mxGeometry relative="1" as="geometry" />
        </mxCell>
        <mxCell id="YRkSIn1wJ7mnRO5CYGxt-238" value="" style="endArrow=classic;html=1;rounded=0;strokeWidth=2;exitX=0.969;exitY=0.718;exitDx=0;exitDy=0;entryX=0.5;entryY=0;entryDx=0;entryDy=0;exitPerimeter=0;" edge="1" parent="1" source="YRkSIn1wJ7mnRO5CYGxt-226" target="YRkSIn1wJ7mnRO5CYGxt-262">
          <mxGeometry relative="1" as="geometry">
            <mxPoint x="2309" y="560" as="sourcePoint" />
            <mxPoint x="2503.437674684233" y="646.1424999999999" as="targetPoint" />
          </mxGeometry>
        </mxCell>
        <mxCell id="YRkSIn1wJ7mnRO5CYGxt-239" value="&lt;font style=&quot;font-size: 18px;&quot;&gt;2&lt;br&gt;&lt;/font&gt;" style="edgeLabel;resizable=0;html=1;;align=center;verticalAlign=middle;" connectable="0" vertex="1" parent="YRkSIn1wJ7mnRO5CYGxt-238">
          <mxGeometry relative="1" as="geometry" />
        </mxCell>
        <mxCell id="YRkSIn1wJ7mnRO5CYGxt-242" value="" style="ellipse;whiteSpace=wrap;html=1;aspect=fixed;strokeWidth=2;" vertex="1" parent="1">
          <mxGeometry x="2450" y="900" width="80" height="80" as="geometry" />
        </mxCell>
        <mxCell id="YRkSIn1wJ7mnRO5CYGxt-243" value="&lt;div align=&quot;center&quot;&gt;&lt;div&gt;&lt;font style=&quot;line-height: 100%; font-size: 18px;&quot;&gt;Phil5&lt;/font&gt;&lt;/div&gt;&lt;/div&gt;" style="text;html=1;align=center;verticalAlign=middle;whiteSpace=wrap;rounded=0;" vertex="1" parent="1">
          <mxGeometry x="2460" y="916" width="60" height="25" as="geometry" />
        </mxCell>
        <mxCell id="YRkSIn1wJ7mnRO5CYGxt-246" value="" style="ellipse;whiteSpace=wrap;html=1;aspect=fixed;strokeWidth=2;" vertex="1" parent="1">
          <mxGeometry x="2635" y="365" width="80" height="80" as="geometry" />
        </mxCell>
        <mxCell id="YRkSIn1wJ7mnRO5CYGxt-247" value="&lt;div align=&quot;center&quot;&gt;&lt;div&gt;&lt;font style=&quot;line-height: 100%; font-size: 18px;&quot;&gt;Phil2&lt;/font&gt;&lt;/div&gt;&lt;/div&gt;" style="text;html=1;align=center;verticalAlign=middle;whiteSpace=wrap;rounded=0;" vertex="1" parent="1">
          <mxGeometry x="2645" y="381" width="60" height="25" as="geometry" />
        </mxCell>
        <mxCell id="YRkSIn1wJ7mnRO5CYGxt-248" value="" style="ellipse;whiteSpace=wrap;html=1;aspect=fixed;strokeWidth=2;" vertex="1" parent="1">
          <mxGeometry x="2910" y="561" width="80" height="80" as="geometry" />
        </mxCell>
        <mxCell id="YRkSIn1wJ7mnRO5CYGxt-249" value="&lt;div align=&quot;center&quot;&gt;&lt;div&gt;&lt;font style=&quot;line-height: 100%; font-size: 18px;&quot;&gt;Phil3&lt;/font&gt;&lt;/div&gt;&lt;/div&gt;" style="text;html=1;align=center;verticalAlign=middle;whiteSpace=wrap;rounded=0;" vertex="1" parent="1">
          <mxGeometry x="2920" y="577" width="60" height="25" as="geometry" />
        </mxCell>
        <mxCell id="YRkSIn1wJ7mnRO5CYGxt-250" value="" style="ellipse;whiteSpace=wrap;html=1;aspect=fixed;strokeWidth=2;" vertex="1" parent="1">
          <mxGeometry x="2810" y="888.5" width="80" height="80" as="geometry" />
        </mxCell>
        <mxCell id="YRkSIn1wJ7mnRO5CYGxt-251" value="&lt;div align=&quot;center&quot;&gt;&lt;div&gt;&lt;font style=&quot;line-height: 100%; font-size: 18px;&quot;&gt;Phil4&lt;/font&gt;&lt;/div&gt;&lt;/div&gt;" style="text;html=1;align=center;verticalAlign=middle;whiteSpace=wrap;rounded=0;" vertex="1" parent="1">
          <mxGeometry x="2820" y="904.5" width="60" height="25" as="geometry" />
        </mxCell>
        <mxCell id="YRkSIn1wJ7mnRO5CYGxt-255" value="" style="ellipse;whiteSpace=wrap;html=1;aspect=fixed;strokeWidth=2;" vertex="1" parent="1">
          <mxGeometry x="2940" y="260" width="80" height="80" as="geometry" />
        </mxCell>
        <mxCell id="YRkSIn1wJ7mnRO5CYGxt-256" value="&lt;div align=&quot;center&quot;&gt;&lt;div&gt;&lt;font style=&quot;line-height: 100%; font-size: 18px;&quot;&gt;Fork3&lt;/font&gt;&lt;/div&gt;&lt;/div&gt;" style="text;html=1;align=center;verticalAlign=middle;whiteSpace=wrap;rounded=0;" vertex="1" parent="1">
          <mxGeometry x="2950" y="276" width="60" height="25" as="geometry" />
        </mxCell>
        <mxCell id="YRkSIn1wJ7mnRO5CYGxt-257" value="" style="ellipse;whiteSpace=wrap;html=1;aspect=fixed;strokeWidth=2;" vertex="1" parent="1">
          <mxGeometry x="3120" y="806" width="80" height="80" as="geometry" />
        </mxCell>
        <mxCell id="YRkSIn1wJ7mnRO5CYGxt-258" value="&lt;div align=&quot;center&quot;&gt;&lt;div&gt;&lt;font style=&quot;line-height: 100%; font-size: 18px;&quot;&gt;Fork4&lt;/font&gt;&lt;/div&gt;&lt;/div&gt;" style="text;html=1;align=center;verticalAlign=middle;whiteSpace=wrap;rounded=0;" vertex="1" parent="1">
          <mxGeometry x="3130" y="822" width="60" height="25" as="geometry" />
        </mxCell>
        <mxCell id="YRkSIn1wJ7mnRO5CYGxt-259" value="" style="ellipse;whiteSpace=wrap;html=1;aspect=fixed;strokeWidth=2;" vertex="1" parent="1">
          <mxGeometry x="2635" y="1180" width="80" height="80" as="geometry" />
        </mxCell>
        <mxCell id="YRkSIn1wJ7mnRO5CYGxt-260" value="&lt;div align=&quot;center&quot;&gt;&lt;div&gt;&lt;font style=&quot;line-height: 100%; font-size: 18px;&quot;&gt;Fork5&lt;/font&gt;&lt;/div&gt;&lt;/div&gt;" style="text;html=1;align=center;verticalAlign=middle;whiteSpace=wrap;rounded=0;" vertex="1" parent="1">
          <mxGeometry x="2645" y="1196" width="60" height="25" as="geometry" />
        </mxCell>
        <mxCell id="YRkSIn1wJ7mnRO5CYGxt-262" value="" style="rounded=0;whiteSpace=wrap;html=1;strokeWidth=2;rotation=296;" vertex="1" parent="1">
          <mxGeometry x="2474" y="639.43" width="102.01" height="40.57" as="geometry" />
        </mxCell>
        <mxCell id="YRkSIn1wJ7mnRO5CYGxt-263" value="&lt;font style=&quot;font-size: 24px;&quot;&gt;Give&lt;/font&gt;" style="text;html=1;align=center;verticalAlign=middle;whiteSpace=wrap;rounded=0;rotation=296;" vertex="1" parent="1">
          <mxGeometry x="2486.0100000000007" y="644" width="78" height="30" as="geometry" />
        </mxCell>
        <mxCell id="YRkSIn1wJ7mnRO5CYGxt-264" value="" style="rounded=0;whiteSpace=wrap;html=1;strokeWidth=2;rotation=64;" vertex="1" parent="1">
          <mxGeometry x="3024.99" y="528.43" width="102.01" height="40.57" as="geometry" />
        </mxCell>
        <mxCell id="YRkSIn1wJ7mnRO5CYGxt-265" value="&lt;font style=&quot;font-size: 24px;&quot;&gt;Take&lt;/font&gt;" style="text;html=1;align=center;verticalAlign=middle;whiteSpace=wrap;rounded=0;rotation=64;" vertex="1" parent="1">
          <mxGeometry x="3037.0000000000005" y="533" width="78" height="30" as="geometry" />
        </mxCell>
        <mxCell id="YRkSIn1wJ7mnRO5CYGxt-266" value="" style="rounded=0;whiteSpace=wrap;html=1;strokeWidth=2;rotation=64;" vertex="1" parent="1">
          <mxGeometry x="2777.99" y="633.43" width="102.01" height="40.57" as="geometry" />
        </mxCell>
        <mxCell id="YRkSIn1wJ7mnRO5CYGxt-267" value="&lt;font style=&quot;font-size: 24px;&quot;&gt;Give&lt;/font&gt;" style="text;html=1;align=center;verticalAlign=middle;whiteSpace=wrap;rounded=0;rotation=64;" vertex="1" parent="1">
          <mxGeometry x="2790.0000000000005" y="638" width="78" height="30" as="geometry" />
        </mxCell>
        <mxCell id="YRkSIn1wJ7mnRO5CYGxt-268" value="" style="endArrow=classic;html=1;rounded=0;strokeWidth=2;exitX=0.047;exitY=0.703;exitDx=0;exitDy=0;entryX=0.5;entryY=0;entryDx=0;entryDy=0;exitPerimeter=0;" edge="1" parent="1" source="YRkSIn1wJ7mnRO5CYGxt-248" target="YRkSIn1wJ7mnRO5CYGxt-266">
          <mxGeometry relative="1" as="geometry">
            <mxPoint x="2448" y="627" as="sourcePoint" />
            <mxPoint x="2517" y="661" as="targetPoint" />
          </mxGeometry>
        </mxCell>
        <mxCell id="YRkSIn1wJ7mnRO5CYGxt-269" value="&lt;font style=&quot;font-size: 18px;&quot;&gt;2&lt;br&gt;&lt;/font&gt;" style="edgeLabel;resizable=0;html=1;;align=center;verticalAlign=middle;" connectable="0" vertex="1" parent="YRkSIn1wJ7mnRO5CYGxt-268">
          <mxGeometry relative="1" as="geometry" />
        </mxCell>
        <mxCell id="YRkSIn1wJ7mnRO5CYGxt-270" value="" style="endArrow=classic;html=1;rounded=0;strokeWidth=2;exitX=0.5;exitY=1;exitDx=0;exitDy=0;entryX=0.982;entryY=0.344;entryDx=0;entryDy=0;entryPerimeter=0;" edge="1" parent="1" source="YRkSIn1wJ7mnRO5CYGxt-264" target="YRkSIn1wJ7mnRO5CYGxt-248">
          <mxGeometry relative="1" as="geometry">
            <mxPoint x="2924" y="627" as="sourcePoint" />
            <mxPoint x="2857" y="655" as="targetPoint" />
          </mxGeometry>
        </mxCell>
        <mxCell id="YRkSIn1wJ7mnRO5CYGxt-271" value="&lt;font style=&quot;font-size: 18px;&quot;&gt;2&lt;br&gt;&lt;/font&gt;" style="edgeLabel;resizable=0;html=1;;align=center;verticalAlign=middle;" connectable="0" vertex="1" parent="YRkSIn1wJ7mnRO5CYGxt-270">
          <mxGeometry relative="1" as="geometry" />
        </mxCell>
        <mxCell id="YRkSIn1wJ7mnRO5CYGxt-272" value="" style="rounded=0;whiteSpace=wrap;html=1;strokeWidth=2;rotation=0;" vertex="1" parent="1">
          <mxGeometry x="2623.9900000000002" y="260.42999999999995" width="102.01" height="40.57" as="geometry" />
        </mxCell>
        <mxCell id="YRkSIn1wJ7mnRO5CYGxt-273" value="&lt;font style=&quot;font-size: 24px;&quot;&gt;Take&lt;/font&gt;" style="text;html=1;align=center;verticalAlign=middle;whiteSpace=wrap;rounded=0;rotation=0;" vertex="1" parent="1">
          <mxGeometry x="2636.0000000000005" y="265" width="78" height="30" as="geometry" />
        </mxCell>
        <mxCell id="YRkSIn1wJ7mnRO5CYGxt-274" value="" style="rounded=0;whiteSpace=wrap;html=1;strokeWidth=2;rotation=0;" vertex="1" parent="1">
          <mxGeometry x="2624.0000000000005" y="519.43" width="102.01" height="40.57" as="geometry" />
        </mxCell>
        <mxCell id="YRkSIn1wJ7mnRO5CYGxt-275" value="&lt;font style=&quot;font-size: 24px;&quot;&gt;Give&lt;/font&gt;" style="text;html=1;align=center;verticalAlign=middle;whiteSpace=wrap;rounded=0;rotation=0;" vertex="1" parent="1">
          <mxGeometry x="2636.0100000000007" y="524" width="78" height="30" as="geometry" />
        </mxCell>
        <mxCell id="YRkSIn1wJ7mnRO5CYGxt-276" value="" style="endArrow=classic;html=1;rounded=0;strokeWidth=2;exitX=0.5;exitY=1;exitDx=0;exitDy=0;entryX=0.5;entryY=0;entryDx=0;entryDy=0;" edge="1" parent="1" source="YRkSIn1wJ7mnRO5CYGxt-272" target="YRkSIn1wJ7mnRO5CYGxt-246">
          <mxGeometry relative="1" as="geometry">
            <mxPoint x="2319" y="567" as="sourcePoint" />
            <mxPoint x="2373" y="596" as="targetPoint" />
          </mxGeometry>
        </mxCell>
        <mxCell id="YRkSIn1wJ7mnRO5CYGxt-277" value="&lt;font style=&quot;font-size: 18px;&quot;&gt;2&lt;br&gt;&lt;/font&gt;" style="edgeLabel;resizable=0;html=1;;align=center;verticalAlign=middle;" connectable="0" vertex="1" parent="YRkSIn1wJ7mnRO5CYGxt-276">
          <mxGeometry relative="1" as="geometry" />
        </mxCell>
        <mxCell id="YRkSIn1wJ7mnRO5CYGxt-278" value="" style="endArrow=classic;html=1;rounded=0;strokeWidth=2;exitX=0.5;exitY=1;exitDx=0;exitDy=0;entryX=0.5;entryY=0;entryDx=0;entryDy=0;" edge="1" parent="1" source="YRkSIn1wJ7mnRO5CYGxt-246" target="YRkSIn1wJ7mnRO5CYGxt-274">
          <mxGeometry relative="1" as="geometry">
            <mxPoint x="2329" y="577" as="sourcePoint" />
            <mxPoint x="2383" y="606" as="targetPoint" />
          </mxGeometry>
        </mxCell>
        <mxCell id="YRkSIn1wJ7mnRO5CYGxt-279" value="&lt;font style=&quot;font-size: 18px;&quot;&gt;2&lt;br&gt;&lt;/font&gt;" style="edgeLabel;resizable=0;html=1;;align=center;verticalAlign=middle;" connectable="0" vertex="1" parent="YRkSIn1wJ7mnRO5CYGxt-278">
          <mxGeometry relative="1" as="geometry" />
        </mxCell>
        <mxCell id="YRkSIn1wJ7mnRO5CYGxt-280" value="" style="endArrow=classic;html=1;rounded=0;strokeWidth=2;exitX=0;exitY=0.5;exitDx=0;exitDy=0;entryX=0.75;entryY=0;entryDx=0;entryDy=0;strokeColor=light-dark(#a51d2d, #ededed);" edge="1" parent="1" source="YRkSIn1wJ7mnRO5CYGxt-230" target="YRkSIn1wJ7mnRO5CYGxt-232">
          <mxGeometry relative="1" as="geometry">
            <mxPoint x="2339" y="587" as="sourcePoint" />
            <mxPoint x="2393" y="616" as="targetPoint" />
            <Array as="points">
              <mxPoint x="2280" y="400" />
            </Array>
          </mxGeometry>
        </mxCell>
        <mxCell id="YRkSIn1wJ7mnRO5CYGxt-281" value="&lt;font style=&quot;font-size: 18px;&quot;&gt;1&lt;br&gt;&lt;/font&gt;" style="edgeLabel;resizable=0;html=1;;align=center;verticalAlign=middle;" connectable="0" vertex="1" parent="YRkSIn1wJ7mnRO5CYGxt-280">
          <mxGeometry relative="1" as="geometry" />
        </mxCell>
        <mxCell id="YRkSIn1wJ7mnRO5CYGxt-282" value="" style="endArrow=classic;html=1;rounded=0;strokeWidth=2;exitX=0;exitY=0;exitDx=0;exitDy=0;entryX=0.25;entryY=0;entryDx=0;entryDy=0;strokeColor=light-dark(#a51d2d, #ededed);" edge="1" parent="1" source="YRkSIn1wJ7mnRO5CYGxt-228" target="YRkSIn1wJ7mnRO5CYGxt-232">
          <mxGeometry relative="1" as="geometry">
            <mxPoint x="2352" y="310" as="sourcePoint" />
            <mxPoint x="2294" y="526" as="targetPoint" />
            <Array as="points">
              <mxPoint x="2170" y="650" />
            </Array>
          </mxGeometry>
        </mxCell>
        <mxCell id="YRkSIn1wJ7mnRO5CYGxt-283" value="&lt;font style=&quot;font-size: 18px;&quot;&gt;1&lt;br&gt;&lt;/font&gt;" style="edgeLabel;resizable=0;html=1;;align=center;verticalAlign=middle;" connectable="0" vertex="1" parent="YRkSIn1wJ7mnRO5CYGxt-282">
          <mxGeometry relative="1" as="geometry" />
        </mxCell>
        <mxCell id="YRkSIn1wJ7mnRO5CYGxt-284" value="" style="endArrow=classic;html=1;rounded=0;strokeWidth=2;exitX=0.75;exitY=1;exitDx=0;exitDy=0;entryX=0.5;entryY=1;entryDx=0;entryDy=0;" edge="1" parent="1" source="YRkSIn1wJ7mnRO5CYGxt-262" target="YRkSIn1wJ7mnRO5CYGxt-230">
          <mxGeometry relative="1" as="geometry">
            <mxPoint x="2362" y="320" as="sourcePoint" />
            <mxPoint x="2304" y="536" as="targetPoint" />
            <Array as="points">
              <mxPoint x="2590" y="660" />
              <mxPoint x="2600" y="630" />
            </Array>
          </mxGeometry>
        </mxCell>
        <mxCell id="YRkSIn1wJ7mnRO5CYGxt-285" value="&lt;font style=&quot;font-size: 18px;&quot;&gt;1&lt;br&gt;&lt;/font&gt;" style="edgeLabel;resizable=0;html=1;;align=center;verticalAlign=middle;" connectable="0" vertex="1" parent="YRkSIn1wJ7mnRO5CYGxt-284">
          <mxGeometry relative="1" as="geometry" />
        </mxCell>
        <mxCell id="YRkSIn1wJ7mnRO5CYGxt-288" value="" style="endArrow=classic;html=1;rounded=0;strokeWidth=2;exitX=0.25;exitY=1;exitDx=0;exitDy=0;entryX=1;entryY=1;entryDx=0;entryDy=0;" edge="1" parent="1" source="YRkSIn1wJ7mnRO5CYGxt-274" target="YRkSIn1wJ7mnRO5CYGxt-230">
          <mxGeometry relative="1" as="geometry">
            <mxPoint x="2564" y="656" as="sourcePoint" />
            <mxPoint x="2480" y="350" as="targetPoint" />
            <Array as="points">
              <mxPoint x="2650" y="610" />
              <mxPoint x="2620" y="610" />
            </Array>
          </mxGeometry>
        </mxCell>
        <mxCell id="YRkSIn1wJ7mnRO5CYGxt-289" value="&lt;font style=&quot;font-size: 18px;&quot;&gt;1&lt;br&gt;&lt;/font&gt;" style="edgeLabel;resizable=0;html=1;;align=center;verticalAlign=middle;" connectable="0" vertex="1" parent="YRkSIn1wJ7mnRO5CYGxt-288">
          <mxGeometry relative="1" as="geometry" />
        </mxCell>
        <mxCell id="YRkSIn1wJ7mnRO5CYGxt-290" value="" style="endArrow=classic;html=1;rounded=0;strokeWidth=2;exitX=0.75;exitY=1;exitDx=0;exitDy=0;entryX=0.04;entryY=0.692;entryDx=0;entryDy=0;entryPerimeter=0;" edge="1" parent="1" source="YRkSIn1wJ7mnRO5CYGxt-274" target="YRkSIn1wJ7mnRO5CYGxt-255">
          <mxGeometry relative="1" as="geometry">
            <mxPoint x="2574" y="666" as="sourcePoint" />
            <mxPoint x="2402" y="360" as="targetPoint" />
            <Array as="points">
              <mxPoint x="2701" y="610" />
              <mxPoint x="2730" y="610" />
            </Array>
          </mxGeometry>
        </mxCell>
        <mxCell id="YRkSIn1wJ7mnRO5CYGxt-291" value="&lt;font style=&quot;font-size: 18px;&quot;&gt;1&lt;br&gt;&lt;/font&gt;" style="edgeLabel;resizable=0;html=1;;align=center;verticalAlign=middle;" connectable="0" vertex="1" parent="YRkSIn1wJ7mnRO5CYGxt-290">
          <mxGeometry relative="1" as="geometry" />
        </mxCell>
        <mxCell id="YRkSIn1wJ7mnRO5CYGxt-292" value="" style="endArrow=classic;html=1;rounded=0;strokeWidth=2;exitX=0.25;exitY=1;exitDx=0;exitDy=0;entryX=0.343;entryY=0.942;entryDx=0;entryDy=0;entryPerimeter=0;" edge="1" parent="1" source="YRkSIn1wJ7mnRO5CYGxt-266" target="YRkSIn1wJ7mnRO5CYGxt-255">
          <mxGeometry relative="1" as="geometry">
            <mxPoint x="2711" y="570" as="sourcePoint" />
            <mxPoint x="2953" y="325" as="targetPoint" />
            <Array as="points">
              <mxPoint x="2760" y="654" />
              <mxPoint x="2760" y="620" />
            </Array>
          </mxGeometry>
        </mxCell>
        <mxCell id="YRkSIn1wJ7mnRO5CYGxt-293" value="&lt;font style=&quot;font-size: 18px;&quot;&gt;1&lt;br&gt;&lt;/font&gt;" style="edgeLabel;resizable=0;html=1;;align=center;verticalAlign=middle;" connectable="0" vertex="1" parent="YRkSIn1wJ7mnRO5CYGxt-292">
          <mxGeometry relative="1" as="geometry" />
        </mxCell>
        <mxCell id="YRkSIn1wJ7mnRO5CYGxt-294" value="" style="endArrow=classic;html=1;rounded=0;strokeWidth=2;exitX=0.277;exitY=0.061;exitDx=0;exitDy=0;exitPerimeter=0;entryX=0.75;entryY=0;entryDx=0;entryDy=0;" edge="1" parent="1" source="YRkSIn1wJ7mnRO5CYGxt-255" target="YRkSIn1wJ7mnRO5CYGxt-272">
          <mxGeometry relative="1" as="geometry">
            <mxPoint x="2842" y="170" as="sourcePoint" />
            <mxPoint x="2740" y="220" as="targetPoint" />
            <Array as="points">
              <mxPoint x="2830" y="230" />
            </Array>
          </mxGeometry>
        </mxCell>
        <mxCell id="YRkSIn1wJ7mnRO5CYGxt-295" value="&lt;font style=&quot;font-size: 18px;&quot;&gt;1&lt;br&gt;&lt;/font&gt;" style="edgeLabel;resizable=0;html=1;;align=center;verticalAlign=middle;" connectable="0" vertex="1" parent="YRkSIn1wJ7mnRO5CYGxt-294">
          <mxGeometry relative="1" as="geometry" />
        </mxCell>
        <mxCell id="YRkSIn1wJ7mnRO5CYGxt-296" value="" style="endArrow=classic;html=1;rounded=0;strokeWidth=2;exitX=0.712;exitY=0.047;exitDx=0;exitDy=0;entryX=0.25;entryY=0;entryDx=0;entryDy=0;exitPerimeter=0;" edge="1" parent="1" source="YRkSIn1wJ7mnRO5CYGxt-230" target="YRkSIn1wJ7mnRO5CYGxt-272">
          <mxGeometry relative="1" as="geometry">
            <mxPoint x="2556" y="213" as="sourcePoint" />
            <mxPoint x="2498" y="429" as="targetPoint" />
            <Array as="points">
              <mxPoint x="2540" y="220" />
            </Array>
          </mxGeometry>
        </mxCell>
        <mxCell id="YRkSIn1wJ7mnRO5CYGxt-297" value="&lt;font style=&quot;font-size: 18px;&quot;&gt;1&lt;br&gt;&lt;/font&gt;" style="edgeLabel;resizable=0;html=1;;align=center;verticalAlign=middle;" connectable="0" vertex="1" parent="YRkSIn1wJ7mnRO5CYGxt-296">
          <mxGeometry relative="1" as="geometry" />
        </mxCell>
        <mxCell id="YRkSIn1wJ7mnRO5CYGxt-298" value="" style="rounded=0;whiteSpace=wrap;html=1;strokeWidth=2;rotation=223;" vertex="1" parent="1">
          <mxGeometry x="2357" y="1008" width="102.01" height="40.57" as="geometry" />
        </mxCell>
        <mxCell id="YRkSIn1wJ7mnRO5CYGxt-299" value="&lt;font style=&quot;font-size: 24px;&quot;&gt;Take&lt;/font&gt;" style="text;html=1;align=center;verticalAlign=middle;whiteSpace=wrap;rounded=0;rotation=43;direction=east;" vertex="1" parent="1">
          <mxGeometry x="2369.0100000000007" y="1012.5699999999999" width="78" height="30" as="geometry" />
        </mxCell>
        <mxCell id="YRkSIn1wJ7mnRO5CYGxt-300" value="" style="endArrow=classic;html=1;rounded=0;strokeWidth=2;exitX=0.5;exitY=1;exitDx=0;exitDy=0;entryX=0;entryY=1;entryDx=0;entryDy=0;" edge="1" parent="1" source="YRkSIn1wJ7mnRO5CYGxt-298" target="YRkSIn1wJ7mnRO5CYGxt-242">
          <mxGeometry relative="1" as="geometry">
            <mxPoint x="2319" y="567" as="sourcePoint" />
            <mxPoint x="2373" y="596" as="targetPoint" />
          </mxGeometry>
        </mxCell>
        <mxCell id="YRkSIn1wJ7mnRO5CYGxt-301" value="&lt;font style=&quot;font-size: 18px;&quot;&gt;2&lt;br&gt;&lt;/font&gt;" style="edgeLabel;resizable=0;html=1;;align=center;verticalAlign=middle;" connectable="0" vertex="1" parent="YRkSIn1wJ7mnRO5CYGxt-300">
          <mxGeometry relative="1" as="geometry" />
        </mxCell>
        <mxCell id="YRkSIn1wJ7mnRO5CYGxt-306" value="" style="rounded=0;whiteSpace=wrap;html=1;strokeWidth=2;rotation=223;" vertex="1" parent="1">
          <mxGeometry x="2523.9900000000002" y="818.22" width="102.01" height="40.57" as="geometry" />
        </mxCell>
        <mxCell id="YRkSIn1wJ7mnRO5CYGxt-307" value="&lt;font style=&quot;font-size: 24px;&quot;&gt;Give&lt;/font&gt;" style="text;html=1;align=center;verticalAlign=middle;whiteSpace=wrap;rounded=0;rotation=43;direction=east;" vertex="1" parent="1">
          <mxGeometry x="2534.000000000001" y="823.79" width="78" height="30" as="geometry" />
        </mxCell>
        <mxCell id="YRkSIn1wJ7mnRO5CYGxt-308" value="" style="endArrow=classic;html=1;rounded=0;strokeWidth=2;exitX=0.784;exitY=0.115;exitDx=0;exitDy=0;entryX=0.5;entryY=1;entryDx=0;entryDy=0;exitPerimeter=0;" edge="1" parent="1" source="YRkSIn1wJ7mnRO5CYGxt-242" target="YRkSIn1wJ7mnRO5CYGxt-307">
          <mxGeometry relative="1" as="geometry">
            <mxPoint x="2432" y="1023" as="sourcePoint" />
            <mxPoint x="2472" y="978" as="targetPoint" />
          </mxGeometry>
        </mxCell>
        <mxCell id="YRkSIn1wJ7mnRO5CYGxt-309" value="&lt;font style=&quot;font-size: 18px;&quot;&gt;2&lt;br&gt;&lt;/font&gt;" style="edgeLabel;resizable=0;html=1;;align=center;verticalAlign=middle;" connectable="0" vertex="1" parent="YRkSIn1wJ7mnRO5CYGxt-308">
          <mxGeometry relative="1" as="geometry" />
        </mxCell>
        <mxCell id="YRkSIn1wJ7mnRO5CYGxt-318" value="" style="rounded=0;whiteSpace=wrap;html=1;strokeWidth=2;rotation=317;" vertex="1" parent="1">
          <mxGeometry x="2887.99" y="1001" width="102.01" height="40.57" as="geometry" />
        </mxCell>
        <mxCell id="YRkSIn1wJ7mnRO5CYGxt-319" value="&lt;font style=&quot;font-size: 24px;&quot;&gt;Take&lt;/font&gt;" style="text;html=1;align=center;verticalAlign=middle;whiteSpace=wrap;rounded=0;rotation=317;direction=east;" vertex="1" parent="1">
          <mxGeometry x="2900.0000000000005" y="1005.5699999999999" width="78" height="30" as="geometry" />
        </mxCell>
        <mxCell id="YRkSIn1wJ7mnRO5CYGxt-320" value="" style="endArrow=classic;html=1;rounded=0;strokeWidth=2;exitX=0.5;exitY=0;exitDx=0;exitDy=0;entryX=1;entryY=1;entryDx=0;entryDy=0;" edge="1" parent="1" source="YRkSIn1wJ7mnRO5CYGxt-318" target="YRkSIn1wJ7mnRO5CYGxt-250">
          <mxGeometry relative="1" as="geometry">
            <mxPoint x="2432" y="1023" as="sourcePoint" />
            <mxPoint x="2471" y="978" as="targetPoint" />
          </mxGeometry>
        </mxCell>
        <mxCell id="YRkSIn1wJ7mnRO5CYGxt-321" value="&lt;font style=&quot;font-size: 18px;&quot;&gt;2&lt;br&gt;&lt;/font&gt;" style="edgeLabel;resizable=0;html=1;;align=center;verticalAlign=middle;" connectable="0" vertex="1" parent="YRkSIn1wJ7mnRO5CYGxt-320">
          <mxGeometry relative="1" as="geometry" />
        </mxCell>
        <mxCell id="YRkSIn1wJ7mnRO5CYGxt-322" value="" style="rounded=0;whiteSpace=wrap;html=1;strokeWidth=2;rotation=317;" vertex="1" parent="1">
          <mxGeometry x="2719" y="822.51" width="102.01" height="40.57" as="geometry" />
        </mxCell>
        <mxCell id="YRkSIn1wJ7mnRO5CYGxt-323" value="&lt;font style=&quot;font-size: 24px;&quot;&gt;Give&lt;/font&gt;" style="text;html=1;align=center;verticalAlign=middle;whiteSpace=wrap;rounded=0;rotation=317;direction=east;" vertex="1" parent="1">
          <mxGeometry x="2731.01" y="827.0799999999999" width="78" height="30" as="geometry" />
        </mxCell>
        <mxCell id="YRkSIn1wJ7mnRO5CYGxt-324" value="" style="endArrow=classic;html=1;rounded=0;strokeWidth=2;exitX=0;exitY=0;exitDx=0;exitDy=0;entryX=0.5;entryY=1;entryDx=0;entryDy=0;" edge="1" parent="1" source="YRkSIn1wJ7mnRO5CYGxt-250" target="YRkSIn1wJ7mnRO5CYGxt-322">
          <mxGeometry relative="1" as="geometry">
            <mxPoint x="2761" y="980" as="sourcePoint" />
            <mxPoint x="2715" y="931" as="targetPoint" />
          </mxGeometry>
        </mxCell>
        <mxCell id="YRkSIn1wJ7mnRO5CYGxt-325" value="&lt;font style=&quot;font-size: 18px;&quot;&gt;2&lt;br&gt;&lt;/font&gt;" style="edgeLabel;resizable=0;html=1;;align=center;verticalAlign=middle;" connectable="0" vertex="1" parent="YRkSIn1wJ7mnRO5CYGxt-324">
          <mxGeometry relative="1" as="geometry" />
        </mxCell>
        <mxCell id="YRkSIn1wJ7mnRO5CYGxt-326" value="" style="endArrow=classic;html=1;rounded=0;strokeWidth=2;exitX=1;exitY=0;exitDx=0;exitDy=0;entryX=0.75;entryY=0;entryDx=0;entryDy=0;" edge="1" parent="1" source="YRkSIn1wJ7mnRO5CYGxt-257" target="YRkSIn1wJ7mnRO5CYGxt-264">
          <mxGeometry relative="1" as="geometry">
            <mxPoint x="3262" y="520" as="sourcePoint" />
            <mxPoint x="3204" y="736" as="targetPoint" />
            <Array as="points">
              <mxPoint x="3180" y="660" />
            </Array>
          </mxGeometry>
        </mxCell>
        <mxCell id="YRkSIn1wJ7mnRO5CYGxt-327" value="&lt;font style=&quot;font-size: 18px;&quot;&gt;1&lt;br&gt;&lt;/font&gt;" style="edgeLabel;resizable=0;html=1;;align=center;verticalAlign=middle;" connectable="0" vertex="1" parent="YRkSIn1wJ7mnRO5CYGxt-326">
          <mxGeometry relative="1" as="geometry" />
        </mxCell>
        <mxCell id="YRkSIn1wJ7mnRO5CYGxt-328" value="" style="endArrow=classic;html=1;rounded=0;strokeWidth=2;exitX=1;exitY=0.5;exitDx=0;exitDy=0;entryX=0.25;entryY=0;entryDx=0;entryDy=0;" edge="1" parent="1" source="YRkSIn1wJ7mnRO5CYGxt-255" target="YRkSIn1wJ7mnRO5CYGxt-264">
          <mxGeometry relative="1" as="geometry">
            <mxPoint x="3152" y="285.5" as="sourcePoint" />
            <mxPoint x="3094" y="501.5" as="targetPoint" />
            <Array as="points">
              <mxPoint x="3080" y="410" />
            </Array>
          </mxGeometry>
        </mxCell>
        <mxCell id="YRkSIn1wJ7mnRO5CYGxt-329" value="&lt;font style=&quot;font-size: 18px;&quot;&gt;1&lt;br&gt;&lt;/font&gt;" style="edgeLabel;resizable=0;html=1;;align=center;verticalAlign=middle;" connectable="0" vertex="1" parent="YRkSIn1wJ7mnRO5CYGxt-328">
          <mxGeometry relative="1" as="geometry" />
        </mxCell>
        <mxCell id="YRkSIn1wJ7mnRO5CYGxt-330" value="" style="endArrow=classic;html=1;rounded=0;strokeWidth=2;entryX=0.75;entryY=1;entryDx=0;entryDy=0;exitX=0.613;exitY=0.975;exitDx=0;exitDy=0;exitPerimeter=0;" edge="1" parent="1" source="YRkSIn1wJ7mnRO5CYGxt-257" target="YRkSIn1wJ7mnRO5CYGxt-318">
          <mxGeometry relative="1" as="geometry">
            <mxPoint x="3170" y="890" as="sourcePoint" />
            <mxPoint x="3070" y="961" as="targetPoint" />
            <Array as="points">
              <mxPoint x="3100" y="980" />
            </Array>
          </mxGeometry>
        </mxCell>
        <mxCell id="YRkSIn1wJ7mnRO5CYGxt-331" value="&lt;font style=&quot;font-size: 18px;&quot;&gt;1&lt;br&gt;&lt;/font&gt;" style="edgeLabel;resizable=0;html=1;;align=center;verticalAlign=middle;" connectable="0" vertex="1" parent="YRkSIn1wJ7mnRO5CYGxt-330">
          <mxGeometry relative="1" as="geometry" />
        </mxCell>
        <mxCell id="YRkSIn1wJ7mnRO5CYGxt-332" value="" style="endArrow=classic;html=1;rounded=0;strokeWidth=2;exitX=1;exitY=0.65;exitDx=0;exitDy=0;entryX=0.25;entryY=1;entryDx=0;entryDy=0;exitPerimeter=0;" edge="1" parent="1" source="YRkSIn1wJ7mnRO5CYGxt-259" target="YRkSIn1wJ7mnRO5CYGxt-318">
          <mxGeometry relative="1" as="geometry">
            <mxPoint x="3020" y="1365" as="sourcePoint" />
            <mxPoint x="2937" y="1110" as="targetPoint" />
            <Array as="points">
              <mxPoint x="2880" y="1170" />
            </Array>
          </mxGeometry>
        </mxCell>
        <mxCell id="YRkSIn1wJ7mnRO5CYGxt-333" value="&lt;font style=&quot;font-size: 18px;&quot;&gt;1&lt;br&gt;&lt;/font&gt;" style="edgeLabel;resizable=0;html=1;;align=center;verticalAlign=middle;" connectable="0" vertex="1" parent="YRkSIn1wJ7mnRO5CYGxt-332">
          <mxGeometry relative="1" as="geometry" />
        </mxCell>
        <mxCell id="YRkSIn1wJ7mnRO5CYGxt-334" value="" style="endArrow=classic;html=1;rounded=0;strokeWidth=2;entryX=0.25;entryY=0;entryDx=0;entryDy=0;exitX=0.013;exitY=0.638;exitDx=0;exitDy=0;exitPerimeter=0;" edge="1" parent="1" source="YRkSIn1wJ7mnRO5CYGxt-259" target="YRkSIn1wJ7mnRO5CYGxt-298">
          <mxGeometry relative="1" as="geometry">
            <mxPoint x="2590" y="1260" as="sourcePoint" />
            <mxPoint x="2269.01" y="1020" as="targetPoint" />
            <Array as="points">
              <mxPoint x="2490" y="1180" />
            </Array>
          </mxGeometry>
        </mxCell>
        <mxCell id="YRkSIn1wJ7mnRO5CYGxt-335" value="&lt;font style=&quot;font-size: 18px;&quot;&gt;1&lt;br&gt;&lt;/font&gt;" style="edgeLabel;resizable=0;html=1;;align=center;verticalAlign=middle;" connectable="0" vertex="1" parent="YRkSIn1wJ7mnRO5CYGxt-334">
          <mxGeometry relative="1" as="geometry" />
        </mxCell>
        <mxCell id="YRkSIn1wJ7mnRO5CYGxt-336" value="" style="endArrow=classic;html=1;rounded=0;strokeWidth=2;exitX=0.425;exitY=1.019;exitDx=0;exitDy=0;entryX=0.75;entryY=0;entryDx=0;entryDy=0;exitPerimeter=0;" edge="1" parent="1" source="YRkSIn1wJ7mnRO5CYGxt-228" target="YRkSIn1wJ7mnRO5CYGxt-298">
          <mxGeometry relative="1" as="geometry">
            <mxPoint x="3228" y="858" as="sourcePoint" />
            <mxPoint x="3145" y="603" as="targetPoint" />
            <Array as="points">
              <mxPoint x="2250" y="980" />
            </Array>
          </mxGeometry>
        </mxCell>
        <mxCell id="YRkSIn1wJ7mnRO5CYGxt-337" value="&lt;font style=&quot;font-size: 18px;&quot;&gt;1&lt;br&gt;&lt;/font&gt;" style="edgeLabel;resizable=0;html=1;;align=center;verticalAlign=middle;" connectable="0" vertex="1" parent="YRkSIn1wJ7mnRO5CYGxt-336">
          <mxGeometry relative="1" as="geometry" />
        </mxCell>
        <mxCell id="YRkSIn1wJ7mnRO5CYGxt-338" value="" style="endArrow=classic;html=1;rounded=0;strokeWidth=2;exitX=0.25;exitY=1;exitDx=0;exitDy=0;entryX=0.933;entryY=0.231;entryDx=0;entryDy=0;entryPerimeter=0;" edge="1" parent="1" source="YRkSIn1wJ7mnRO5CYGxt-262" target="YRkSIn1wJ7mnRO5CYGxt-228">
          <mxGeometry relative="1" as="geometry">
            <mxPoint x="2695.99" y="810.5" as="sourcePoint" />
            <mxPoint x="2360" y="800" as="targetPoint" />
            <Array as="points">
              <mxPoint x="2570" y="710" />
              <mxPoint x="2560" y="740" />
            </Array>
          </mxGeometry>
        </mxCell>
        <mxCell id="YRkSIn1wJ7mnRO5CYGxt-339" value="&lt;font style=&quot;font-size: 18px;&quot;&gt;1&lt;br&gt;&lt;/font&gt;" style="edgeLabel;resizable=0;html=1;;align=center;verticalAlign=middle;" connectable="0" vertex="1" parent="YRkSIn1wJ7mnRO5CYGxt-338">
          <mxGeometry relative="1" as="geometry" />
        </mxCell>
        <mxCell id="YRkSIn1wJ7mnRO5CYGxt-340" value="" style="endArrow=classic;html=1;rounded=0;strokeWidth=2;exitX=0.75;exitY=1;exitDx=0;exitDy=0;entryX=1;entryY=0.5;entryDx=0;entryDy=0;" edge="1" parent="1" source="YRkSIn1wJ7mnRO5CYGxt-306" target="YRkSIn1wJ7mnRO5CYGxt-228">
          <mxGeometry relative="1" as="geometry">
            <mxPoint x="2702" y="762" as="sourcePoint" />
            <mxPoint x="2350" y="850" as="targetPoint" />
            <Array as="points">
              <mxPoint x="2590" y="780" />
              <mxPoint x="2570" y="760" />
            </Array>
          </mxGeometry>
        </mxCell>
        <mxCell id="YRkSIn1wJ7mnRO5CYGxt-341" value="&lt;font style=&quot;font-size: 18px;&quot;&gt;1&lt;br&gt;&lt;/font&gt;" style="edgeLabel;resizable=0;html=1;;align=center;verticalAlign=middle;" connectable="0" vertex="1" parent="YRkSIn1wJ7mnRO5CYGxt-340">
          <mxGeometry relative="1" as="geometry" />
        </mxCell>
        <mxCell id="YRkSIn1wJ7mnRO5CYGxt-342" value="" style="endArrow=classic;html=1;rounded=0;strokeWidth=2;exitX=0.75;exitY=1;exitDx=0;exitDy=0;entryX=0;entryY=0;entryDx=0;entryDy=0;" edge="1" parent="1" source="YRkSIn1wJ7mnRO5CYGxt-266" target="YRkSIn1wJ7mnRO5CYGxt-257">
          <mxGeometry relative="1" as="geometry">
            <mxPoint x="2930.01" y="746" as="sourcePoint" />
            <mxPoint x="2590.01" y="789" as="targetPoint" />
            <Array as="points">
              <mxPoint x="2770" y="710" />
              <mxPoint x="2780" y="740" />
            </Array>
          </mxGeometry>
        </mxCell>
        <mxCell id="YRkSIn1wJ7mnRO5CYGxt-343" value="&lt;font style=&quot;font-size: 18px;&quot;&gt;1&lt;br&gt;&lt;/font&gt;" style="edgeLabel;resizable=0;html=1;;align=center;verticalAlign=middle;" connectable="0" vertex="1" parent="YRkSIn1wJ7mnRO5CYGxt-342">
          <mxGeometry relative="1" as="geometry" />
        </mxCell>
        <mxCell id="YRkSIn1wJ7mnRO5CYGxt-344" value="" style="endArrow=classic;html=1;rounded=0;strokeWidth=2;exitX=0.679;exitY=-0.018;exitDx=0;exitDy=0;entryX=0;entryY=0.5;entryDx=0;entryDy=0;exitPerimeter=0;" edge="1" parent="1" source="YRkSIn1wJ7mnRO5CYGxt-322" target="YRkSIn1wJ7mnRO5CYGxt-257">
          <mxGeometry relative="1" as="geometry">
            <mxPoint x="2832" y="696" as="sourcePoint" />
            <mxPoint x="3142" y="828" as="targetPoint" />
            <Array as="points">
              <mxPoint x="2740" y="790" />
              <mxPoint x="2760" y="770" />
            </Array>
          </mxGeometry>
        </mxCell>
        <mxCell id="YRkSIn1wJ7mnRO5CYGxt-345" value="&lt;font style=&quot;font-size: 18px;&quot;&gt;1&lt;br&gt;&lt;/font&gt;" style="edgeLabel;resizable=0;html=1;;align=center;verticalAlign=middle;" connectable="0" vertex="1" parent="YRkSIn1wJ7mnRO5CYGxt-344">
          <mxGeometry relative="1" as="geometry" />
        </mxCell>
        <mxCell id="YRkSIn1wJ7mnRO5CYGxt-346" value="" style="endArrow=classic;html=1;rounded=0;strokeWidth=2;exitX=0.25;exitY=0;exitDx=0;exitDy=0;entryX=0.691;entryY=0.039;entryDx=0;entryDy=0;entryPerimeter=0;" edge="1" parent="1" source="YRkSIn1wJ7mnRO5CYGxt-322" target="YRkSIn1wJ7mnRO5CYGxt-259">
          <mxGeometry relative="1" as="geometry">
            <mxPoint x="2630" y="704" as="sourcePoint" />
            <mxPoint x="2710" y="1110" as="targetPoint" />
            <Array as="points">
              <mxPoint x="2710" y="820" />
              <mxPoint x="2690" y="840" />
            </Array>
          </mxGeometry>
        </mxCell>
        <mxCell id="YRkSIn1wJ7mnRO5CYGxt-347" value="&lt;font style=&quot;font-size: 18px;&quot;&gt;1&lt;br&gt;&lt;/font&gt;" style="edgeLabel;resizable=0;html=1;;align=center;verticalAlign=middle;" connectable="0" vertex="1" parent="YRkSIn1wJ7mnRO5CYGxt-346">
          <mxGeometry relative="1" as="geometry" />
        </mxCell>
        <mxCell id="YRkSIn1wJ7mnRO5CYGxt-348" value="" style="endArrow=classic;html=1;rounded=0;strokeWidth=2;exitX=0.25;exitY=1;exitDx=0;exitDy=0;entryX=0.224;entryY=0.084;entryDx=0;entryDy=0;entryPerimeter=0;" edge="1" parent="1" source="YRkSIn1wJ7mnRO5CYGxt-306" target="YRkSIn1wJ7mnRO5CYGxt-259">
          <mxGeometry relative="1" as="geometry">
            <mxPoint x="2693" y="831" as="sourcePoint" />
            <mxPoint x="2645" y="1169" as="targetPoint" />
            <Array as="points">
              <mxPoint x="2630" y="820" />
              <mxPoint x="2650" y="839" />
            </Array>
          </mxGeometry>
        </mxCell>
        <mxCell id="YRkSIn1wJ7mnRO5CYGxt-349" value="&lt;font style=&quot;font-size: 18px;&quot;&gt;1&lt;br&gt;&lt;/font&gt;" style="edgeLabel;resizable=0;html=1;;align=center;verticalAlign=middle;" connectable="0" vertex="1" parent="YRkSIn1wJ7mnRO5CYGxt-348">
          <mxGeometry relative="1" as="geometry" />
        </mxCell>
        <mxCell id="YRkSIn1wJ7mnRO5CYGxt-350" value="" style="ellipse;whiteSpace=wrap;html=1;aspect=fixed;labelBackgroundColor=none;fillColor=#000000;" vertex="1" parent="1">
          <mxGeometry x="2403.01" y="606" width="10" height="10" as="geometry" />
        </mxCell>
        <mxCell id="YRkSIn1wJ7mnRO5CYGxt-351" value="" style="ellipse;whiteSpace=wrap;html=1;aspect=fixed;labelBackgroundColor=none;fillColor=#000000;" vertex="1" parent="1">
          <mxGeometry x="2385" y="606" width="10" height="10" as="geometry" />
        </mxCell>
        <mxCell id="YRkSIn1wJ7mnRO5CYGxt-352" value="" style="ellipse;whiteSpace=wrap;html=1;aspect=fixed;labelBackgroundColor=none;fillColor=#000000;" vertex="1" parent="1">
          <mxGeometry x="2975" y="306" width="10" height="10" as="geometry" />
        </mxCell>
        <mxCell id="YRkSIn1wJ7mnRO5CYGxt-353" value="" style="ellipse;whiteSpace=wrap;html=1;aspect=fixed;labelBackgroundColor=none;fillColor=#000000;" vertex="1" parent="1">
          <mxGeometry x="3156" y="852.08" width="10" height="10" as="geometry" />
        </mxCell>
        <mxCell id="YRkSIn1wJ7mnRO5CYGxt-354" value="" style="ellipse;whiteSpace=wrap;html=1;aspect=fixed;labelBackgroundColor=none;fillColor=#000000;" vertex="1" parent="1">
          <mxGeometry x="2670" y="1224" width="10" height="10" as="geometry" />
        </mxCell>
        <mxCell id="YRkSIn1wJ7mnRO5CYGxt-357" value="" style="ellipse;whiteSpace=wrap;html=1;aspect=fixed;strokeWidth=2;" vertex="1" parent="1">
          <mxGeometry x="1202" y="40" width="80" height="80" as="geometry" />
        </mxCell>
        <mxCell id="YRkSIn1wJ7mnRO5CYGxt-358" value="&lt;div align=&quot;center&quot;&gt;&lt;div&gt;&lt;font style=&quot;font-size: 24px; line-height: 100%;&quot;&gt;Elf&lt;/font&gt;&lt;/div&gt;&lt;/div&gt;" style="text;html=1;align=center;verticalAlign=middle;whiteSpace=wrap;rounded=0;" vertex="1" parent="1">
          <mxGeometry x="1212" y="56" width="60" height="25" as="geometry" />
        </mxCell>
        <mxCell id="YRkSIn1wJ7mnRO5CYGxt-359" value="" style="ellipse;whiteSpace=wrap;html=1;aspect=fixed;strokeWidth=2;" vertex="1" parent="1">
          <mxGeometry x="1202" y="161" width="80" height="80" as="geometry" />
        </mxCell>
        <mxCell id="YRkSIn1wJ7mnRO5CYGxt-360" value="&lt;div align=&quot;center&quot;&gt;&lt;div&gt;&lt;font style=&quot;font-size: 24px; line-height: 100%;&quot;&gt;Key&lt;/font&gt;&lt;/div&gt;&lt;/div&gt;" style="text;html=1;align=center;verticalAlign=middle;whiteSpace=wrap;rounded=0;" vertex="1" parent="1">
          <mxGeometry x="1212" y="177" width="60" height="25" as="geometry" />
        </mxCell>
        <mxCell id="YRkSIn1wJ7mnRO5CYGxt-361" value="" style="ellipse;whiteSpace=wrap;html=1;aspect=fixed;strokeWidth=2;" vertex="1" parent="1">
          <mxGeometry x="1202" y="280" width="80" height="80" as="geometry" />
        </mxCell>
        <mxCell id="YRkSIn1wJ7mnRO5CYGxt-362" value="&lt;div align=&quot;center&quot;&gt;&lt;div&gt;&lt;font style=&quot;font-size: 24px; line-height: 100%;&quot;&gt;Rein&lt;/font&gt;&lt;/div&gt;&lt;/div&gt;" style="text;html=1;align=center;verticalAlign=middle;whiteSpace=wrap;rounded=0;" vertex="1" parent="1">
          <mxGeometry x="1212" y="296" width="60" height="25" as="geometry" />
        </mxCell>
        <mxCell id="YRkSIn1wJ7mnRO5CYGxt-363" value="" style="rounded=0;whiteSpace=wrap;html=1;strokeWidth=2;rotation=90;" vertex="1" parent="1">
          <mxGeometry x="1377.36" y="244.98" width="116.93" height="50.02" as="geometry" />
        </mxCell>
        <mxCell id="YRkSIn1wJ7mnRO5CYGxt-364" value="&lt;font style=&quot;font-size: 24px;&quot;&gt;Gate1&lt;/font&gt;" style="text;html=1;align=center;verticalAlign=middle;whiteSpace=wrap;rounded=0;rotation=-90;" vertex="1" parent="1">
          <mxGeometry x="1396.82" y="254.98999999999998" width="78" height="30" as="geometry" />
        </mxCell>
        <mxCell id="YRkSIn1wJ7mnRO5CYGxt-366" value="" style="rounded=0;whiteSpace=wrap;html=1;strokeWidth=2;rotation=90;" vertex="1" parent="1">
          <mxGeometry x="1377.36" y="100" width="116.93" height="50.02" as="geometry" />
        </mxCell>
        <mxCell id="YRkSIn1wJ7mnRO5CYGxt-367" value="&lt;font style=&quot;font-size: 24px;&quot;&gt;Gate2&lt;/font&gt;" style="text;html=1;align=center;verticalAlign=middle;whiteSpace=wrap;rounded=0;rotation=-90;" vertex="1" parent="1">
          <mxGeometry x="1396.82" y="110.01000000000002" width="78" height="30" as="geometry" />
        </mxCell>
        <mxCell id="YRkSIn1wJ7mnRO5CYGxt-369" value="" style="endArrow=classic;html=1;rounded=0;strokeWidth=2;exitX=1;exitY=0.5;exitDx=0;exitDy=0;entryX=0.75;entryY=1;entryDx=0;entryDy=0;" edge="1" parent="1" source="YRkSIn1wJ7mnRO5CYGxt-361" target="YRkSIn1wJ7mnRO5CYGxt-363">
          <mxGeometry relative="1" as="geometry">
            <mxPoint x="1642.3" y="340" as="sourcePoint" />
            <mxPoint x="1542.3" y="340" as="targetPoint" />
          </mxGeometry>
        </mxCell>
        <mxCell id="YRkSIn1wJ7mnRO5CYGxt-370" value="&lt;font style=&quot;font-size: 18px;&quot;&gt;9&lt;br&gt;&lt;/font&gt;" style="edgeLabel;resizable=0;html=1;;align=center;verticalAlign=middle;" connectable="0" vertex="1" parent="YRkSIn1wJ7mnRO5CYGxt-369">
          <mxGeometry relative="1" as="geometry" />
        </mxCell>
        <mxCell id="YRkSIn1wJ7mnRO5CYGxt-371" value="" style="endArrow=classic;html=1;rounded=0;strokeWidth=2;exitX=1;exitY=0.5;exitDx=0;exitDy=0;entryX=0.25;entryY=1;entryDx=0;entryDy=0;" edge="1" parent="1" source="YRkSIn1wJ7mnRO5CYGxt-359" target="YRkSIn1wJ7mnRO5CYGxt-363">
          <mxGeometry relative="1" as="geometry">
            <mxPoint x="1625" y="301" as="sourcePoint" />
            <mxPoint x="1350" y="290" as="targetPoint" />
          </mxGeometry>
        </mxCell>
        <mxCell id="YRkSIn1wJ7mnRO5CYGxt-372" value="&lt;font style=&quot;font-size: 18px;&quot;&gt;1&lt;br&gt;&lt;/font&gt;" style="edgeLabel;resizable=0;html=1;;align=center;verticalAlign=middle;" connectable="0" vertex="1" parent="YRkSIn1wJ7mnRO5CYGxt-371">
          <mxGeometry relative="1" as="geometry" />
        </mxCell>
        <mxCell id="YRkSIn1wJ7mnRO5CYGxt-373" value="" style="endArrow=classic;html=1;rounded=0;strokeWidth=2;exitX=1;exitY=0.5;exitDx=0;exitDy=0;entryX=0.75;entryY=1;entryDx=0;entryDy=0;" edge="1" parent="1" source="YRkSIn1wJ7mnRO5CYGxt-359" target="YRkSIn1wJ7mnRO5CYGxt-366">
          <mxGeometry relative="1" as="geometry">
            <mxPoint x="1690" y="220" as="sourcePoint" />
            <mxPoint x="1590" y="220" as="targetPoint" />
          </mxGeometry>
        </mxCell>
        <mxCell id="YRkSIn1wJ7mnRO5CYGxt-374" value="&lt;font style=&quot;font-size: 18px;&quot;&gt;1&lt;br&gt;&lt;/font&gt;" style="edgeLabel;resizable=0;html=1;;align=center;verticalAlign=middle;" connectable="0" vertex="1" parent="YRkSIn1wJ7mnRO5CYGxt-373">
          <mxGeometry relative="1" as="geometry" />
        </mxCell>
        <mxCell id="YRkSIn1wJ7mnRO5CYGxt-375" value="" style="endArrow=classic;html=1;rounded=0;strokeWidth=2;exitX=1;exitY=0.5;exitDx=0;exitDy=0;entryX=0.25;entryY=1;entryDx=0;entryDy=0;" edge="1" parent="1" source="YRkSIn1wJ7mnRO5CYGxt-357" target="YRkSIn1wJ7mnRO5CYGxt-366">
          <mxGeometry relative="1" as="geometry">
            <mxPoint x="1700" y="309.28999999999996" as="sourcePoint" />
            <mxPoint x="1600" y="309.28999999999996" as="targetPoint" />
          </mxGeometry>
        </mxCell>
        <mxCell id="YRkSIn1wJ7mnRO5CYGxt-376" value="&lt;font style=&quot;font-size: 18px;&quot;&gt;3&lt;br&gt;&lt;/font&gt;" style="edgeLabel;resizable=0;html=1;;align=center;verticalAlign=middle;" connectable="0" vertex="1" parent="YRkSIn1wJ7mnRO5CYGxt-375">
          <mxGeometry relative="1" as="geometry" />
        </mxCell>
        <mxCell id="YRkSIn1wJ7mnRO5CYGxt-377" value="" style="ellipse;whiteSpace=wrap;html=1;aspect=fixed;labelBackgroundColor=none;fillColor=#000000;" vertex="1" parent="1">
          <mxGeometry x="1237" y="210" width="10" height="10" as="geometry" />
        </mxCell>
        <mxCell id="YRkSIn1wJ7mnRO5CYGxt-378" value="" style="ellipse;whiteSpace=wrap;html=1;aspect=fixed;labelBackgroundColor=none;fillColor=#000000;" vertex="1" parent="1">
          <mxGeometry x="1212" y="326" width="10" height="10" as="geometry" />
        </mxCell>
        <mxCell id="YRkSIn1wJ7mnRO5CYGxt-379" value="" style="ellipse;whiteSpace=wrap;html=1;aspect=fixed;labelBackgroundColor=none;fillColor=#000000;" vertex="1" parent="1">
          <mxGeometry x="1222" y="336" width="10" height="10" as="geometry" />
        </mxCell>
        <mxCell id="YRkSIn1wJ7mnRO5CYGxt-380" value="" style="ellipse;whiteSpace=wrap;html=1;aspect=fixed;labelBackgroundColor=none;fillColor=#000000;" vertex="1" parent="1">
          <mxGeometry x="1240" y="346" width="10" height="10" as="geometry" />
        </mxCell>
        <mxCell id="YRkSIn1wJ7mnRO5CYGxt-381" value="" style="ellipse;whiteSpace=wrap;html=1;aspect=fixed;labelBackgroundColor=none;fillColor=#000000;" vertex="1" parent="1">
          <mxGeometry x="1237" y="321" width="10" height="10" as="geometry" />
        </mxCell>
        <mxCell id="YRkSIn1wJ7mnRO5CYGxt-383" value="" style="ellipse;whiteSpace=wrap;html=1;aspect=fixed;labelBackgroundColor=none;fillColor=#000000;" vertex="1" parent="1">
          <mxGeometry x="1261" y="326" width="10" height="10" as="geometry" />
        </mxCell>
        <mxCell id="YRkSIn1wJ7mnRO5CYGxt-384" value="" style="ellipse;whiteSpace=wrap;html=1;aspect=fixed;labelBackgroundColor=none;fillColor=#000000;" vertex="1" parent="1">
          <mxGeometry x="1221" y="90" width="10" height="10" as="geometry" />
        </mxCell>
        <mxCell id="YRkSIn1wJ7mnRO5CYGxt-385" value="" style="ellipse;whiteSpace=wrap;html=1;aspect=fixed;labelBackgroundColor=none;fillColor=#000000;" vertex="1" parent="1">
          <mxGeometry x="1257" y="90" width="10" height="10" as="geometry" />
        </mxCell>
        <mxCell id="YRkSIn1wJ7mnRO5CYGxt-386" value="" style="ellipse;whiteSpace=wrap;html=1;aspect=fixed;labelBackgroundColor=none;fillColor=#000000;" vertex="1" parent="1">
          <mxGeometry x="1241" y="100.00999999999999" width="10" height="10" as="geometry" />
        </mxCell>
        <mxCell id="YRkSIn1wJ7mnRO5CYGxt-387" value="" style="ellipse;whiteSpace=wrap;html=1;aspect=fixed;strokeWidth=2;" vertex="1" parent="1">
          <mxGeometry x="1600" y="160" width="80" height="80" as="geometry" />
        </mxCell>
        <mxCell id="YRkSIn1wJ7mnRO5CYGxt-388" value="&lt;div align=&quot;center&quot;&gt;&lt;div&gt;&lt;font style=&quot;font-size: 24px; line-height: 100%;&quot;&gt;Santa&lt;/font&gt;&lt;/div&gt;&lt;/div&gt;" style="text;html=1;align=center;verticalAlign=middle;whiteSpace=wrap;rounded=0;" vertex="1" parent="1">
          <mxGeometry x="1610" y="176" width="60" height="25" as="geometry" />
        </mxCell>
        <mxCell id="YRkSIn1wJ7mnRO5CYGxt-389" value="" style="endArrow=classic;html=1;rounded=0;strokeWidth=2;exitX=0.5;exitY=0;exitDx=0;exitDy=0;entryX=0;entryY=1;entryDx=0;entryDy=0;" edge="1" parent="1" source="YRkSIn1wJ7mnRO5CYGxt-363" target="YRkSIn1wJ7mnRO5CYGxt-387">
          <mxGeometry relative="1" as="geometry">
            <mxPoint x="1650" y="359" as="sourcePoint" />
            <mxPoint x="1550" y="359" as="targetPoint" />
          </mxGeometry>
        </mxCell>
        <mxCell id="YRkSIn1wJ7mnRO5CYGxt-390" value="&lt;font style=&quot;font-size: 18px;&quot;&gt;1&lt;br&gt;&lt;/font&gt;" style="edgeLabel;resizable=0;html=1;;align=center;verticalAlign=middle;" connectable="0" vertex="1" parent="YRkSIn1wJ7mnRO5CYGxt-389">
          <mxGeometry relative="1" as="geometry" />
        </mxCell>
        <mxCell id="YRkSIn1wJ7mnRO5CYGxt-391" value="" style="endArrow=classic;html=1;rounded=0;strokeWidth=2;exitX=0.5;exitY=0;exitDx=0;exitDy=0;entryX=0;entryY=0;entryDx=0;entryDy=0;" edge="1" parent="1" source="YRkSIn1wJ7mnRO5CYGxt-366" target="YRkSIn1wJ7mnRO5CYGxt-388">
          <mxGeometry relative="1" as="geometry">
            <mxPoint x="1620.29" y="68" as="sourcePoint" />
            <mxPoint x="1520.29" y="68" as="targetPoint" />
          </mxGeometry>
        </mxCell>
        <mxCell id="YRkSIn1wJ7mnRO5CYGxt-392" value="&lt;font style=&quot;font-size: 18px;&quot;&gt;1&lt;br&gt;&lt;/font&gt;" style="edgeLabel;resizable=0;html=1;;align=center;verticalAlign=middle;" connectable="0" vertex="1" parent="YRkSIn1wJ7mnRO5CYGxt-391">
          <mxGeometry relative="1" as="geometry" />
        </mxCell>
        <mxCell id="YRkSIn1wJ7mnRO5CYGxt-395" value="" style="rounded=0;whiteSpace=wrap;html=1;strokeWidth=2;rotation=90;" vertex="1" parent="1">
          <mxGeometry x="1730.07" y="174.99" width="116.93" height="50.02" as="geometry" />
        </mxCell>
        <mxCell id="YRkSIn1wJ7mnRO5CYGxt-396" value="&lt;font style=&quot;font-size: 24px;&quot;&gt;Release&lt;/font&gt;" style="text;html=1;align=center;verticalAlign=middle;whiteSpace=wrap;rounded=0;rotation=-90;" vertex="1" parent="1">
          <mxGeometry x="1749.53" y="185" width="78" height="30" as="geometry" />
        </mxCell>
        <mxCell id="YRkSIn1wJ7mnRO5CYGxt-398" value="" style="endArrow=classic;html=1;rounded=0;strokeWidth=2;exitX=0.5;exitY=0;exitDx=0;exitDy=0;entryX=0;entryY=0.5;entryDx=0;entryDy=0;" edge="1" parent="1" source="YRkSIn1wJ7mnRO5CYGxt-395" target="YRkSIn1wJ7mnRO5CYGxt-359">
          <mxGeometry relative="1" as="geometry">
            <mxPoint x="1471" y="280" as="sourcePoint" />
            <mxPoint x="1100" y="170" as="targetPoint" />
            <Array as="points">
              <mxPoint x="1840" y="200" />
              <mxPoint x="1840" y="400" />
              <mxPoint x="1160" y="400" />
              <mxPoint x="1160" y="200" />
            </Array>
          </mxGeometry>
        </mxCell>
        <mxCell id="YRkSIn1wJ7mnRO5CYGxt-399" value="&lt;font style=&quot;font-size: 18px;&quot;&gt;1&lt;br&gt;&lt;/font&gt;" style="edgeLabel;resizable=0;html=1;;align=center;verticalAlign=middle;" connectable="0" vertex="1" parent="YRkSIn1wJ7mnRO5CYGxt-398">
          <mxGeometry relative="1" as="geometry" />
        </mxCell>
        <mxCell id="YRkSIn1wJ7mnRO5CYGxt-401" value="" style="ellipse;whiteSpace=wrap;html=1;aspect=fixed;labelBackgroundColor=none;fillColor=#000000;" vertex="1" parent="1">
          <mxGeometry x="1247" y="331" width="10" height="10" as="geometry" />
        </mxCell>
        <mxCell id="YRkSIn1wJ7mnRO5CYGxt-402" value="" style="ellipse;whiteSpace=wrap;html=1;aspect=fixed;labelBackgroundColor=none;fillColor=#000000;" vertex="1" parent="1">
          <mxGeometry x="1232" y="80" width="10" height="10" as="geometry" />
        </mxCell>
      </root>
    </mxGraphModel>
  </diagram>
</mxfile>
